<?xml version="1.0" encoding="UTF-8"?>
<!DOCTYPE svg PUBLIC "-//W3C//DTD SVG 1.1//EN" "http://www.w3.org/Graphics/SVG/1.1/DTD/svg11.dtd">
<!-- Creator: CorelDRAW -->
<svg xmlns="http://www.w3.org/2000/svg" xml:space="preserve" width="127px" height="127px" version="1.1" shape-rendering="geometricPrecision" text-rendering="geometricPrecision" image-rendering="optimizeQuality" fill-rule="evenodd" clip-rule="evenodd"
viewBox="0 0 11.33 11.33"
 xmlns:xlink="http://www.w3.org/1999/xlink"
 xmlns:xodm="http://www.corel.com/coreldraw/odm/2003">
 <g id="Layer_x0020_1">
  <metadata id="CorelCorpID_0Corel-Layer"/>
  <g id="_1711430655584">
   <path fill="#FEFEFE" d="M0 5.43c0,1.01 0.11,1.8 0.53,2.64 0.54,1.07 1.22,1.87 2.26,2.48 0.69,0.41 1.72,0.78 2.64,0.78 1.01,0 1.8,-0.11 2.64,-0.53 0.44,-0.22 0.89,-0.47 1.24,-0.8 0.39,-0.36 0.64,-0.56 0.98,-1.05 0.59,-0.87 1.04,-1.92 1.04,-3.05 0,-1.01 -0.11,-1.81 -0.53,-2.64 -0.64,-1.28 -1.44,-2.08 -2.71,-2.72 -0.68,-0.35 -1.47,-0.52 -2.27,-0.54l-0.26 0c-1.15,0.02 -2.3,0.38 -3.17,1.03 -0.68,0.52 -1.16,1 -1.62,1.76 -0.41,0.69 -0.77,1.72 -0.77,2.64z"/>
   <path fill="black" d="M5.66 6.53c-0.47,-0.05 -0.32,0.24 -0.8,0.65 -0.91,0.75 -2.46,0.2 -2.42,-1.33l3.29 -0.02c0.16,-1.08 -0.43,-2.12 -1.47,-2.28 -1.17,-0.19 -2,0.6 -2.13,1.61 -0.17,1.24 0.26,2.19 1.16,2.55 1.06,0.42 2.21,-0.32 2.37,-1.18z"/>
   <path fill="#E5E5E5" d="M0.35 7.49c0.13,0.45 0.39,0.87 0.63,1.27 0.03,0.04 0.04,0.07 0.06,0.11 0.15,0.22 0.34,0.41 0.51,0.61 0.09,0.11 0.22,0.23 0.33,0.33 0.99,0.88 2.31,1.45 3.69,1.45 0.29,0 0.78,-0.02 1.08,-0.09 -0.39,0 -0.62,0.08 -1.03,0.05 -0.43,-0.02 -0.93,-0.09 -1.37,-0.23l-0.21 -0.07c-0.33,-0.13 -0.65,-0.26 -0.96,-0.43 -0.93,-0.54 -1.91,-1.6 -2.27,-2.66l-0.11 -0.33c-0.02,-0.07 0,0 -0.03,-0.07l-0.11 -0.42c-0.21,-1.24 -0.15,-2.41 0.42,-3.55 0.13,-0.26 0.28,-0.54 0.45,-0.77 0.05,-0.07 0.08,-0.1 0.13,-0.17l0.13 -0.17c0.16,-0.16 0.29,-0.33 0.45,-0.48 0.04,-0.03 0.05,-0.03 0.08,-0.06l0.6 -0.47c0,0 0.01,0 0.01,0 0,-0.01 0.02,-0.02 0.02,-0.02l0.11 -0.07c0,0 0.02,-0.01 0.02,-0.01l0.02 -0.02c0.01,0 0.01,-0.01 0.02,-0.01l0.81 -0.4c0,0 0.01,0 0.01,0 0.01,0 0.01,-0.01 0.02,-0.01l0.32 -0.11c0.01,0 0.05,-0.02 0.09,-0.03 0.05,-0.02 0.08,-0.02 0.1,-0.03 0.24,-0.05 0.48,-0.11 0.73,-0.13 0.1,-0.01 0,0 0.09,-0.02 0.27,-0.06 0.54,-0.04 0.81,-0.03l0.51 0.03c0.05,0.01 0.11,0.02 0.11,0.02l0.66 0.13c0.01,0 0.01,0.01 0.02,0.01l0.83 0.3c0.18,0.07 0.32,0.16 0.43,0.23 0.01,0 0.04,0.02 0.05,0.02l0.85 0.63c0.01,0.01 0.04,0.03 0.04,0.04 0.17,0.16 0.46,0.44 0.58,0.63l0.18 0.25c0.17,0.24 0.33,0.5 0.45,0.78 0.32,0.73 0.53,1.5 0.5,2.32l-0.04 0.68c0.08,-0.14 0.11,-0.92 0.08,-1.16 -0.13,-1.2 -0.33,-1.9 -0.98,-2.91 -0.27,-0.4 -0.6,-0.69 -0.92,-1.02l-0.36 -0.3c-0.12,-0.09 -0.23,-0.15 -0.37,-0.25 -0.24,-0.16 -1.13,-0.64 -1.37,-0.59l-0.09 0.05c-0.22,-0.1 -0.15,-0.02 -0.34,-0.1 -0.01,0 -0.02,-0.01 -0.02,-0.01l-0.06 -0.01c0,0 -0.01,0 -0.01,0l-0.18 -0.01c-0.01,0 -0.02,0 -0.02,0l-0.3 -0.02c-0.29,-0.04 -0.79,-0.05 -1.07,0 -0.01,0 -0.08,0.02 -0.11,0.02l-0.51 0.1c0,0 -0.01,0 -0.01,0l-0.26 0.07c0,0 -0.04,0 -0.05,0.01 -0.03,0 -0.08,0.01 -0.09,0.02 -0.09,0.02 0.05,-0.02 -0.03,0.01l-0.4 0.14c-0.04,0.02 -0.01,0 -0.05,0.02l-0.54 0.26c-0.06,0.03 0.05,-0.03 -0.03,0.02l-0.02 0.01c-0.14,0.11 -0.15,0.08 -0.25,0.16l-0.19 0.13c-0.08,0.05 0,0 -0.04,0.02l-0.32 0.23c-0.06,0.06 -0.02,0.03 -0.06,0.08 -0.03,0.03 0.01,0 -0.04,0.04l-0.12 0.08c-0.02,0.02 -0.05,0.04 -0.08,0.06 -0.21,0.16 -0.47,0.5 -0.66,0.73l-0.28 0.42c-0.02,0.03 -0.01,0.02 -0.03,0.05l-0.44 0.9c-0.01,0.01 -0.04,0.08 -0.04,0.09l-0.11 0.34c0,0.01 0,0.02 0,0.02l-0.18 0.75c0,0.03 0,0.05 -0.01,0.09 0,0.03 0,0.05 -0.01,0.11 -0.01,0.05 -0.01,0.06 -0.02,0.09l0.06 1.55c0.01,0.1 0.19,0.62 0.11,0.68z"/>
   <path fill="#FEFEFE" d="M2.46 5.26l0 0.23 2.95 0c0.09,-0.87 -0.55,-1.57 -1.34,-1.64 -0.51,-0.05 -0.87,0.13 -1.13,0.37 -0.19,0.19 -0.5,0.61 -0.48,1.04z"/>
   <path fill="black" d="M5.83 3.72c0.08,0.15 0.23,0.32 0.35,0.48l1.11 1.48c-0.17,0.27 -1.51,1.9 -1.53,2.06 0.38,0.04 0.43,-0.07 0.59,-0.27 0.12,-0.18 0.25,-0.35 0.39,-0.52 0.13,-0.16 0.24,-0.32 0.37,-0.49l0.39 -0.5c0.13,0.12 0.61,0.8 0.77,1 0.13,0.17 0.24,0.32 0.38,0.5 0.11,0.14 0.28,0.39 0.58,0.27 0.01,-0.06 -1.45,-1.96 -1.52,-2.05 0.06,-0.1 0.11,-0.15 0.18,-0.25l0.94 -1.24c0.08,-0.11 0.31,-0.38 0.36,-0.49 -0.48,-0.06 -0.58,0.25 -0.95,0.72 -0.09,0.12 -0.63,0.9 -0.77,0.96l-1.08 -1.45c-0.1,-0.12 -0.33,-0.35 -0.56,-0.21z"/>
   <path fill="#CFCFCF" d="M0.35 7.49c0.08,-0.06 -0.1,-0.58 -0.11,-0.68l-0.06 -1.55c0.01,-0.03 0.01,-0.04 0.02,-0.09 0.01,-0.06 0.01,-0.08 0.01,-0.11 0.01,-0.04 0.01,-0.06 0.01,-0.09l0.18 -0.75c0,0 0,-0.01 0,-0.02l0.11 -0.34c0,-0.01 0.03,-0.08 0.04,-0.09l0.44 -0.9c0.02,-0.03 0.01,-0.02 0.03,-0.05l0.28 -0.42c0.19,-0.23 0.45,-0.57 0.66,-0.73 0.03,-0.02 0.06,-0.04 0.08,-0.06l0.12 -0.08c0.05,-0.04 0.01,-0.01 0.04,-0.04 0.04,-0.05 0,-0.02 0.06,-0.08l0.32 -0.23c0.04,-0.02 -0.04,0.03 0.04,-0.02l0.19 -0.13c0.1,-0.08 0.11,-0.05 0.25,-0.16l0.02 -0.01c0.08,-0.05 -0.03,0.01 0.03,-0.02l0.54 -0.26c0.04,-0.02 0.01,0 0.05,-0.02l0.4 -0.14c0.08,-0.03 -0.06,0.01 0.03,-0.01 0.01,-0.01 0.06,-0.02 0.09,-0.02 0.01,-0.01 0.05,-0.01 0.05,-0.01l0.26 -0.07c0,0 0.01,0 0.01,0l0.51 -0.1c0.03,0 0.1,-0.02 0.11,-0.02 0.28,-0.05 0.78,-0.04 1.07,0l0.3 0.02c0,0 0.01,0 0.02,0l0.18 0.01c0,0 0.01,0 0.01,0l0.06 0.01c0,0 0.01,0.01 0.02,0.01 0.19,0.08 0.12,0 0.34,0.1l0.09 -0.05c-0.37,-0.18 -1.19,-0.24 -1.65,-0.24 -1.61,0.01 -2.97,0.71 -3.97,1.71 -1.25,1.24 -1.82,3.2 -1.48,4.96 0.05,0.25 0.17,0.57 0.2,0.77z"/>
   <path fill="#8A8A8A" d="M5.41 5.49l-2.95 0 0 -0.23c-0.05,0.08 -0.05,0.14 -0.02,0.25 0.37,0.03 2,0 2.61,0 0.13,0 0.28,0.02 0.36,-0.02z"/>
  </g>
 </g>
</svg>
