<?xml version="1.0" encoding="UTF-8"?>
<!DOCTYPE svg PUBLIC "-//W3C//DTD SVG 1.1//EN" "http://www.w3.org/Graphics/SVG/1.1/DTD/svg11.dtd">
<!-- Creator: CorelDRAW -->
<svg xmlns="http://www.w3.org/2000/svg" xml:space="preserve" width="127px" height="53px" version="1.1" shape-rendering="geometricPrecision" text-rendering="geometricPrecision" image-rendering="optimizeQuality" fill-rule="evenodd" clip-rule="evenodd"
viewBox="0 0 29.31 12.26"
 xmlns:xlink="http://www.w3.org/1999/xlink"
 xmlns:xodm="http://www.corel.com/coreldraw/odm/2003">
 <g id="Layer_x0020_1">
  <metadata id="CorelCorpID_0Corel-Layer"/>
  <g id="_1711245234848">
   <path fill="#DC4B36" d="M4.42 1.38c0.26,0.18 0.97,0.94 1.24,1.22 0.4,0.42 0.33,-0.04 0.89,0.23 0.51,0.25 0.58,0.67 0.47,1.15 0.26,0.17 0.95,0.92 1.21,1.19 0.36,0.38 0.32,-0.06 0.87,0.21 0.86,0.42 0.61,1.74 -0.42,1.74 -0.54,0 -0.88,-0.39 -0.88,-0.98 0,-0.17 0.04,-0.19 0.05,-0.35 -0.23,-0.15 -1.07,-1.1 -1.27,-1.17l0 3.33c0.86,0.46 0.53,1.72 -0.44,1.72 -0.55,0 -0.89,-0.39 -0.89,-0.98 0,-0.63 0.59,-0.7 0.59,-0.94l0 -3.08c0,-0.3 -0.59,-0.21 -0.59,-1.08 0,-0.17 0.04,-0.19 0.05,-0.34 -0.3,-0.2 -1.15,-1.26 -1.42,-1.33 -0.23,0.16 -3,2.99 -3.52,3.49 -0.85,0.84 -0.02,1.45 0.64,2.04 0.14,0.12 0.26,0.26 0.39,0.39l3.78 3.77c0.45,0.46 0.49,0.65 1.06,0.65 0.4,0 1.3,-1.02 1.66,-1.38l3.8 -3.8c0.84,-0.84 0.75,-1.09 -0.03,-1.86l-4.56 -4.56c-0.81,-0.82 -1.07,-0.91 -1.91,-0.07 -0.21,0.21 -0.62,0.57 -0.77,0.79z"/>
   <path fill="#2E2606" d="M17.75 10.74c-0.45,0 -1.72,0.09 -1.72,-0.53 0,-0.37 0.05,-0.34 0.25,-0.64l1.47 0.1c0.76,0 1.23,0.02 1.23,0.49 0,0.46 -0.74,0.58 -1.23,0.58zm-0.05 -4.55c-0.59,0 -1.22,-0.05 -1.22,-0.93 0,-0.97 0.67,-1.03 1.27,-1.03 1.21,0 1.16,1.96 -0.05,1.96zm-1.96 0.88c-0.18,0.27 -1.43,0.97 -0.88,1.86 0.09,0.16 0.18,0.21 0.34,0.3 -0.38,0.56 -0.59,0.35 -0.59,1.32 0,1.43 2.42,1.32 3.43,1.32 1.05,0 2.29,-0.47 2.63,-1.48 0.12,-0.35 0.12,-0.84 0.03,-1.17 -0.34,-1.2 -1.89,-1.06 -2.94,-1.18 -0.37,-0.04 -0.93,-0.09 -1.33,-0.09 0.11,-0.21 0.22,-0.37 0.34,-0.59 0.92,0.22 2,0.13 2.75,-0.44 0.44,-0.34 0.68,-0.9 0.68,-1.62 0,-0.49 -0.22,-0.76 -0.39,-1.07 0.4,0 0.61,-0.05 1.03,-0.05l0 -1.03 -2.01 0c-0.58,0 -1.66,-0.44 -2.91,0.18 -0.99,0.48 -1.33,1.66 -1.04,2.64 0.22,0.77 0.74,0.94 0.86,1.1z"/>
   <path fill="#2E2606" d="M24.56 3.15l0 0.93c1.17,0 0.93,-0.27 0.93,1.52 0,1.57 -0.33,3.53 1.62,3.53 0.7,0 0.76,0.03 1.46,-0.16 1.13,-0.31 0.7,-0.31 0.45,-1.36 -0.35,0.17 -1.71,0.52 -1.71,-0.49l0 -3.04 1.71 0 0 -1.18 -1.71 0 0 -1.76 -1.18 0c0,0.48 -0.2,1.07 -0.41,1.35 -0.2,0.27 -0.51,0.41 -0.85,0.48 -0.18,0.04 -0.31,0 -0.31,0.18z"/>
   <path fill="#2E2606" d="M21.38 4.03c0.29,0.02 0.78,0.15 0.78,0.49l0 3.38c0,0.25 -0.49,0.25 -0.78,0.25l0 0.98 3.33 0 0 -0.98c-0.3,0 -0.78,-0.01 -0.78,-0.25l0 -4.9 -2.31 0c-0.22,0 -0.24,0.83 -0.24,1.03z"/>
   <path fill="#2E2606" d="M21.82 0.94c0,0.72 0.29,1.18 1.08,1.18 1.49,0 1.35,-2.11 0.14,-2.11 -0.34,0 -0.67,-0.01 -0.95,0.27 -0.13,0.13 -0.27,0.42 -0.27,0.66z"/>
  </g>
 </g>
</svg>
