<?xml version="1.0" encoding="UTF-8"?>
<!DOCTYPE svg PUBLIC "-//W3C//DTD SVG 1.1//EN" "http://www.w3.org/Graphics/SVG/1.1/DTD/svg11.dtd">
<!-- Creator: CorelDRAW -->
<svg xmlns="http://www.w3.org/2000/svg" xml:space="preserve" width="127px" height="179px" version="1.1" shape-rendering="geometricPrecision" text-rendering="geometricPrecision" image-rendering="optimizeQuality" fill-rule="evenodd" clip-rule="evenodd"
viewBox="0 0 19.24 27.11"
 xmlns:xlink="http://www.w3.org/1999/xlink"
 xmlns:xodm="http://www.corel.com/coreldraw/odm/2003">
 <g id="Layer_x0020_1">
  <metadata id="CorelCorpID_0Corel-Layer"/>
  <g id="_1711430655728">
   <path fill="#E44D26" d="M1.73 24.94l0.95 0.27c0.32,0.1 0.64,0.18 0.99,0.28l5.95 1.62c0.22,0 7.05,-1.97 7.89,-2.17 0,-0.44 0.07,-0.83 0.1,-1.22l0.22 -2.43c0.08,-1.55 0.3,-3.37 0.43,-4.98l0.94 -10.54c0.02,-0.28 0.12,-0.47 -0.1,-0.47l-18.96 0c-0.26,0 -0.08,0.45 -0.05,1.05l1.64 18.59z"/>
   <path fill="#F06429" d="M9.62 9.33l6.01 0.02 -0.05 0.16c0.04,0.27 -0.11,2.02 -0.18,2.16 -0.02,0.01 -0.03,0.02 -0.04,0.02 -0.01,0.01 -0.03,0.02 -0.04,0.02 -0.3,0.11 0.28,-0.04 -0.09,0.03l-5.61 0 0 2.46c0.2,0 5.35,-0.08 5.57,0.05l-0.67 7.34 -4.92 1.36 -0.09 0 0.11 2.49 6.3 -1.75c0.15,-0.1 0.79,-8.25 0.8,-8.33 0.22,-2.8 0.56,-5.62 0.75,-8.43l-7.86 0 0.01 2.4z"/>
   <path fill="#EBEAEA" d="M9.62 16.61l2.95 0 -0.02 0.28c0.01,-0.01 0.03,-0.05 0.04,-0.05 0,0.01 0.05,-0.05 0.04,-0.21 -0.22,-0.19 -1.1,-0.11 -1.53,-0.11 -0.5,0 -1,0 -1.5,0l0 -2.27 5.59 0c-0.22,-0.13 -5.37,-0.05 -5.57,-0.05l-3.18 0 -0.22 -2.46 3.4 0 5.61 0c0.37,-0.07 -0.21,0.08 0.09,-0.03 0.01,0 0.03,-0.01 0.04,-0.02 0.01,0 0.02,-0.01 0.04,-0.02l-5.8 -0.02 0 -2.22 5.95 0 0.03 0.08 0.05 -0.16 -6.01 -0.02 -6.02 0.01 0.64 7.25 5.38 0.02z"/>
   <path fill="#FFFEFC" d="M12.55 16.89l-0.27 2.81c-0.26,0.19 -0.95,0.29 -1.32,0.39 -0.42,0.11 -0.9,0.26 -1.34,0.35l-0.02 2.51 4.92 -1.36 0.67 -7.34 -5.59 0 0 2.27c0.5,0 1,0 1.5,0 0.43,0 1.31,-0.08 1.53,0.11 0.01,0.16 -0.04,0.22 -0.04,0.21 -0.01,0 -0.03,0.04 -0.04,0.05z"/>
   <path fill="#EBEAEA" d="M9.51 22.95l0.09 0 0.02 -2.51 -2.68 -0.71 -0.18 -1.92 -2.4 0 0.32 3.72 2.43 0.73c0.67,0.2 1.81,0.43 2.4,0.69z"/>
   <path fill="#FFFEFC" d="M15.4 11.67c0.07,-0.14 0.22,-1.89 0.18,-2.16l-0.03 -0.08 -5.95 0 0 2.22 5.8 0.02z"/>
   <path fill="black" d="M9.78 3.65l1.22 0 0 -1.74c0.1,0.08 0.33,0.47 0.43,0.62 0.11,0.17 0.33,0.55 0.47,0.65 0.05,-0.19 0.66,-1.13 0.79,-1.22l0 1.69 1.27 0 0 -3.65 -1.22 0c-0.2,0.04 -0.23,0.18 -0.47,0.58l-0.43 0.69c-0.05,-0.2 -0.44,-0.76 -0.58,-1 -0.09,-0.17 -0.15,-0.24 -0.27,-0.27l-1.21 0 0 3.65z"/>
   <polygon fill="black" points="1.78,3.65 3.05,3.65 3.05,2.44 4.11,2.44 4.11,3.65 5.38,3.65 5.38,0 4.11,0 4.11,1.17 3.05,1.17 3.05,0 1.78,0 "/>
   <path fill="#F06429" d="M9.62 20.44c0.44,-0.09 0.92,-0.24 1.34,-0.35 0.37,-0.1 1.06,-0.2 1.32,-0.39l0.27 -2.81 0.02 -0.28 -2.95 0 0 3.83z"/>
   <polygon fill="#E44D26" points="9.62,14.2 9.62,11.74 6.22,11.74 6.44,14.2 "/>
   <polygon fill="black" points="5.86,1.22 6.97,1.22 6.97,3.65 8.19,3.65 8.19,1.22 9.3,1.22 9.3,0 5.86,0 "/>
   <polygon fill="black" points="14.49,3.65 17.51,3.65 17.51,2.44 15.76,2.44 15.76,0 14.49,0 "/>
  </g>
 </g>
</svg>
