<?xml version="1.0" encoding="UTF-8"?>
<!DOCTYPE svg PUBLIC "-//W3C//DTD SVG 1.1//EN" "http://www.w3.org/Graphics/SVG/1.1/DTD/svg11.dtd">
<!-- Creator: CorelDRAW -->
<svg xmlns="http://www.w3.org/2000/svg" xml:space="preserve" width="106px" height="106px" version="1.1" shape-rendering="geometricPrecision" text-rendering="geometricPrecision" image-rendering="optimizeQuality" fill-rule="evenodd" clip-rule="evenodd"
viewBox="0 0 7.61 7.61"
 xmlns:xlink="http://www.w3.org/1999/xlink"
 xmlns:xodm="http://www.corel.com/coreldraw/odm/2003">
 <g id="Layer_x0020_1">
  <metadata id="CorelCorpID_0Corel-Layer"/>
  <g id="_1711443781968">
   <polygon fill="#F5DE19" points="0,7.61 7.61,7.61 7.61,0 0,0 "/>
   <path fill="black" d="M5.11 5.95c-0.05,0.02 -0.54,0.3 -0.58,0.33 0.08,0.21 0.35,0.47 0.54,0.56 0.29,0.14 0.58,0.2 0.93,0.17 0.64,-0.06 1.11,-0.47 1.01,-1.19 -0.13,-0.88 -1.27,-0.91 -1.51,-1.25 -0.16,-0.24 0.06,-0.61 0.47,-0.46 0.19,0.07 0.17,0.16 0.28,0.27 0.02,-0.01 0.49,-0.3 0.55,-0.35 0,-0.01 0,-0.01 0.01,-0.01 -0.27,-0.56 -1,-0.7 -1.52,-0.47 -0.63,0.28 -0.67,1.05 -0.36,1.46 0.13,0.19 0.37,0.34 0.63,0.45 0.23,0.1 0.59,0.22 0.7,0.4 0.09,0.15 0.03,0.3 -0.06,0.39 -0.19,0.19 -0.6,0.16 -0.83,-0.01 -0.14,-0.1 -0.14,-0.15 -0.26,-0.29z"/>
   <path fill="black" d="M4.14 6.05l0 -2.55c-0.14,0 -0.61,-0.02 -0.71,0.01 0,0.68 0,1.35 0,2.03 0,0.3 0.06,0.72 -0.22,0.81 -0.33,0.11 -0.53,-0.14 -0.62,-0.34 -0.06,0.02 -0.55,0.31 -0.58,0.35 0.06,0.19 0.28,0.41 0.43,0.5 0.41,0.23 1.09,0.21 1.43,-0.13 0.13,-0.13 0.28,-0.4 0.27,-0.68z"/>
   <path fill="#7B6F0D" d="M4.14 6.05c0.02,-0.05 0.04,-2.41 0.01,-2.56l-0.68 -0.01c-0.04,0.01 -0.02,0 -0.04,0.03 0.1,-0.03 0.57,-0.01 0.71,-0.01l0 2.55z"/>
  </g>
 </g>
</svg>
