<?xml version="1.0" encoding="UTF-8"?>
<!DOCTYPE svg PUBLIC "-//W3C//DTD SVG 1.1//EN" "http://www.w3.org/Graphics/SVG/1.1/DTD/svg11.dtd">
<!-- Creator: CorelDRAW -->
<svg xmlns="http://www.w3.org/2000/svg" xml:space="preserve" width="127px" height="43px" version="1.1" shape-rendering="geometricPrecision" text-rendering="geometricPrecision" image-rendering="optimizeQuality" fill-rule="evenodd" clip-rule="evenodd"
viewBox="0 0 19.74 6.73"
 xmlns:xlink="http://www.w3.org/1999/xlink"
 xmlns:xodm="http://www.corel.com/coreldraw/odm/2003">
 <g id="Layer_x0020_1">
  <metadata id="CorelCorpID_0Corel-Layer"/>
  <g id="_2797391238320">
   <path fill="#243857" d="M19.04 5.39l-0.01 0.66c0.15,0.05 0.55,0.03 0.71,0.02l0 -4.11 -0.7 0 0 0.66c-0.11,-0.09 -0.16,-0.26 -0.34,-0.41 -0.92,-0.75 -2.68,-0.32 -2.69,1.81 0,0.93 0.34,1.68 0.95,1.98 0.36,0.18 0.82,0.2 1.24,0.07 0.58,-0.18 0.71,-0.57 0.84,-0.68zm-1.45 -2.81c-0.37,0.09 -0.58,0.28 -0.72,0.58 -0.14,0.33 -0.18,0.77 -0.14,1.16 0.04,0.38 0.16,0.73 0.38,0.92 0.45,0.41 2.09,0.59 1.92,-1.54 -0.06,-0.77 -0.57,-1.33 -1.44,-1.12z"/>
   <path fill="#2684FD" d="M5.21 1.47c0.1,0.36 -0.15,0.81 0.31,1.45 0.2,0.28 0.64,0.61 1.16,0.58l0 -2.59c0,-1.07 0.23,-0.9 -1.72,-0.9 -0.59,0.01 -1.18,0 -1.77,0 -0.03,0.54 0.31,0.97 0.58,1.17 0.47,0.34 0.77,0.29 1.44,0.29z"/>
   <path fill="#243857" d="M8.51 5.27l0 0.7c0.43,0.2 1.26,0.19 1.64,-0.03 0.95,-0.55 0.68,-2.1 0.69,-3.27 0,-0.3 0.05,-1.85 -0.02,-1.98 -0.12,-0.06 -0.54,-0.03 -0.7,-0.02 -0.05,0.21 -0.02,1.3 -0.02,1.6 0,0.53 0,1.07 0.01,1.61 0,0.79 0.09,1.53 -0.92,1.5 -0.28,0 -0.5,-0.1 -0.68,-0.11z"/>
   <path fill="#2684FD" d="M3.49 6.67c0.01,-0.19 -0.01,-0.41 -0.01,-0.61 0,-0.42 -0.06,-0.5 -0.06,-0.65 -0.25,-0.01 -0.1,-0.14 -0.34,-0.37l-0.13 -0.13c-0.01,-0.01 -0.02,-0.03 -0.03,-0.03l-0.14 -0.15c0,0 -0.04,-0.07 -0.28,-0.07l0 -0.21c-0.12,-0.06 -0.11,-0.05 -0.18,-0.15l-0.79 -0.76c-0.07,-0.05 -0.09,-0.11 -0.13,-0.16 -0.11,-0.15 -0.44,-0.1 -0.6,-0.11l1.47 0 1.04 0c-0.07,-0.06 -0.03,-0.04 -0.16,-0.05l-3.14 0.02c-0.09,0.48 0.33,0.99 0.56,1.17 0.5,0.38 0.8,0.21 1.46,0.29 0.1,0.67 -0.11,0.9 0.3,1.45 0.21,0.28 0.59,0.53 0.97,0.57 0.18,0.02 0.17,-0.03 0.19,-0.05z"/>
   <path fill="#2684FD" d="M5.06 1.84c0.03,0.3 0.01,0.78 -0.01,1.1 -0.01,0.36 0,0.72 -0.01,1.08 0,0.15 -0.07,0.94 0,1.01l-0.02 -1.1 -0.14 -0.04 -0.13 -0.26c-0.07,-0.06 -0.11,-0.07 -0.15,-0.09 -0.05,-0.03 -0.01,0.01 -0.05,-0.06l-0.02 -0.04c-0.02,-0.03 0,0.02 -0.03,-0.06l-0.23 -0.01c-0.01,-0.03 0.01,0.01 0,-0.03l-0.01 -0.04c0,0 0,-0.01 -0.01,-0.01l-0.21 -0.28c0,-0.01 -0.02,-0.03 -0.02,-0.03l-0.11 -0.13c0,0 -0.01,-0.01 -0.02,-0.01 0,-0.01 0,-0.01 -0.01,-0.02 -0.08,-0.08 0.08,0.1 -0.02,-0.03 -0.1,-0.11 -0.12,-0.09 -0.2,-0.18l-0.17 -0.2 -0.16 -0.01c-0.01,-0.23 -0.05,-0.17 -0.15,-0.26 -0.01,0 -0.01,0 -0.02,-0.01 -0.07,-0.07 -0.04,-0.09 -0.12,-0.16l-0.23 -0.2c-0.19,-0.13 -0.28,-0.09 -0.63,-0.09l0.71 -0.04 0 -0.02 -1.3 0.01c-0.02,0.54 0.3,0.94 0.57,1.16 0.47,0.35 0.8,0.26 1.46,0.3 0.08,0.38 -0.13,0.87 0.3,1.45 0.18,0.23 0.73,0.66 1.16,0.56 0.03,-0.35 0.05,-3.16 -0.02,-3.26z"/>
   <path fill="#243857" d="M14.28 2.64l0 -0.68 -0.68 0 -0.01 4.11 0.69 0.01c0.03,-0.83 -0.02,-1.67 0,-2.49 0.02,-0.39 0.14,-0.68 0.4,-0.84 0.4,-0.26 0.64,-0.11 1.05,-0.18l0 -0.66c-0.4,-0.08 -0.96,0.1 -1.21,0.4 -0.06,0.08 -0.17,0.27 -0.24,0.33z"/>
   <path fill="#ADB6C8" d="M11.8 6.09l0.74 -0.01c0.02,-0.37 0.03,-4.03 -0.02,-4.14 -0.15,-0.04 -0.57,-0.04 -0.71,0.01l-0.01 4.14z"/>
   <polygon fill="#243857" points="11.83,6.06 12.52,6.06 12.52,1.97 11.83,1.96 "/>
   <path fill="#146EE8" d="M5.05 2.94c-0.05,-0.15 -0.06,-0.31 -0.06,-0.51l-0.15 0c0,-0.01 -0.01,-0.02 -0.01,-0.03 0,0 -0.01,-0.01 -0.01,-0.02 -0.07,-0.1 0,-0.01 -0.13,-0.1 -0.12,-0.09 -0.05,-0.08 -0.21,-0.17l-0.12 -0.08c-0.03,-0.03 -0.01,-0.01 -0.04,-0.05 -0.16,-0.26 -0.18,-0.16 -0.23,-0.3 -0.39,-0.01 -0.81,-0.07 -1.2,-0.04l-0.71 0.04c0.35,0 0.44,-0.04 0.63,0.09l0.23 0.2c0.08,0.07 0.05,0.09 0.12,0.16 0.01,0.01 0.01,0.01 0.02,0.01 0.1,0.09 0.14,0.03 0.15,0.26l0.16 0.01 0.17 0.2c0.08,0.09 0.1,0.07 0.2,0.18 0.1,0.13 -0.06,-0.05 0.02,0.03 0.01,0.01 0.01,0.01 0.01,0.02 0.01,0 0.02,0.01 0.02,0.01l0.11 0.13c0,0 0.02,0.02 0.02,0.03l0.21 0.28c0.01,0 0.01,0.01 0.01,0.01l0.01 0.04c0.01,0.04 -0.01,0 0,0.03l0.23 0.01c0.03,0.08 0.01,0.03 0.03,0.06l0.02 0.04c0.04,0.07 0,0.03 0.05,0.06 0.04,0.02 0.08,0.03 0.15,0.09l0.13 0.26 0.14 0.04 0.02 1.1c-0.07,-0.07 0,-0.86 0,-1.01 0.01,-0.36 0,-0.72 0.01,-1.08z"/>
   <path fill="#146EE8" d="M3.49 6.67c0.02,-0.37 0.03,-3.09 -0.02,-3.24 0.05,0.29 0.02,0.95 -0.02,1.25 -0.1,-0.21 -0.08,-0.06 -0.22,-0.23l-0.03 -0.03c-0.11,-0.12 -0.12,0 -0.26,-0.23l-0.06 -0.08c-0.18,-0.23 -0.12,-0.24 -0.25,-0.26 -0.03,-0.01 -0.06,-0.01 -0.09,-0.01 0,-0.02 0,-0.08 0,-0.1 -0.01,-0.04 0,-0.05 -0.08,-0.1l-0.14 -0.07c-0.04,-0.04 -0.05,-0.1 -0.07,-0.18 -0.42,-0.01 -0.2,-0.17 0.02,-0.12l-1.47 0c0.16,0.01 0.49,-0.04 0.6,0.11 0.04,0.05 0.06,0.11 0.13,0.16l0.79 0.76c0.07,0.1 0.06,0.09 0.18,0.15l0 0.21c0.24,0 0.28,0.07 0.28,0.07l0.14 0.15c0.01,0 0.02,0.02 0.03,0.03l0.13 0.13c0.24,0.23 0.09,0.36 0.34,0.37 0,0.15 0.06,0.23 0.06,0.65 0,0.2 0.02,0.42 0.01,0.61z"/>
   <path fill="#055AD4" d="M3.47 3.43c-0.03,-0.11 -0.06,-0.16 -0.16,-0.16l-1.04 0c-0.22,-0.05 -0.44,0.11 -0.02,0.12 0.02,0.08 0.03,0.14 0.07,0.18l0.14 0.07c0.08,0.05 0.07,0.06 0.08,0.1 0,0.02 0,0.08 0,0.1 0.03,0 0.06,0 0.09,0.01 0.13,0.02 0.07,0.03 0.25,0.26l0.06 0.08c0.14,0.23 0.15,0.11 0.26,0.23l0.03 0.03c0.14,0.17 0.12,0.02 0.22,0.23 0.04,-0.3 0.07,-0.96 0.02,-1.25z"/>
   <path fill="#243857" d="M12.07 0.39c-0.62,0.11 -0.42,1.11 0.23,0.96 0.56,-0.12 0.52,-1.09 -0.23,-0.96z"/>
   <path fill="#055AD4" d="M5.05 2.94c0.02,-0.32 0.04,-0.8 0.01,-1.1 -0.02,-0.33 -0.66,-0.22 -0.97,-0.22 -0.39,0.01 -0.81,0.02 -1.2,0l0 0.02c0.39,-0.03 0.81,0.03 1.2,0.04 0.05,0.14 0.07,0.04 0.23,0.3 0.03,0.04 0.01,0.02 0.04,0.05l0.12 0.08c0.16,0.09 0.09,0.08 0.21,0.17 0.13,0.09 0.06,0 0.13,0.1 0,0.01 0.01,0.02 0.01,0.02 0,0.01 0.01,0.02 0.01,0.03l0.15 0c0,0.2 0.01,0.36 0.06,0.51z"/>
  </g>
 </g>
</svg>
