<?xml version="1.0" encoding="UTF-8"?>
<!DOCTYPE svg PUBLIC "-//W3C//DTD SVG 1.1//EN" "http://www.w3.org/Graphics/SVG/1.1/DTD/svg11.dtd">
<!-- Creator: CorelDRAW -->
<svg xmlns="http://www.w3.org/2000/svg" xml:space="preserve" width="127px" height="127px" version="1.1" shape-rendering="geometricPrecision" text-rendering="geometricPrecision" image-rendering="optimizeQuality" fill-rule="evenodd" clip-rule="evenodd"
viewBox="0 0 25.37 25.36"
 xmlns:xlink="http://www.w3.org/1999/xlink"
 xmlns:xodm="http://www.corel.com/coreldraw/odm/2003">
 <g id="Layer_x0020_1">
  <metadata id="CorelCorpID_0Corel-Layer"/>
  <g id="_1711294575888">
   <path fill="#4278A0" d="M18.39 12.35l0.67 0.02 0.01 3.65c1.4,0.18 1.21,-0.34 1.31,0.44 -0.5,0.2 -1.39,0.09 -1.99,0.08l0 -4.19zm3.06 4.1c-0.33,0.09 0.13,-0.19 -0.15,0.09l0.15 -0.09zm-3.75 0.57c-0.44,0.07 -0.3,-0.04 -0.73,-0.27 -0.49,-0.27 -0.36,-0.14 -0.81,-0.13 -2.37,0.02 -1.86,-3.17 -1.29,-3.8 0.73,-0.79 2.13,-0.65 2.64,0.29 0.53,0.97 0.29,2.29 -0.43,3.08 0.54,0.55 0.83,0.12 0.62,0.83zm-9.32 -3.53l0.6 -0.02 0.78 2.51c0.85,-1.52 -0.04,-2.61 1.21,-2.49 -0.06,0.69 -0.46,2.16 -0.78,2.83 -0.27,0.56 -1.6,2.11 -1.91,1 0.36,-0.21 0.39,0.02 0.94,-0.37 0.18,-0.79 -0.59,-2.59 -0.84,-3.46zm-4.44 -1.12l0.82 0.03 1.07 3.02 1.05 -3.07 0.8 0.12 0.26 4.05 -0.63 -0.01 -0.23 -3.24c-0.46,0.76 -0.74,2.73 -1.19,3.27l-0.37 -0.02c-0.56,-0.77 -0.55,-2.34 -1.17,-3.1l-0.13 3.1 -0.64 -0.03 0.36 -4.12zm7.59 3.81c0.35,-0.56 0.19,-0.04 1.04,-0.06 0.34,0 0.75,-0.15 0.8,-0.53 0.06,-0.62 -0.9,-0.99 -1.36,-1.29 -1.28,-0.83 0.06,-2.78 1.8,-1.67 -0.3,0.69 -0.57,-0.17 -1.5,0.36 -0.18,0.66 0.01,0.85 0.59,1.15 0.59,0.31 0.64,0.35 1.13,0.8 0.34,1.95 -1.88,1.99 -2.5,1.24zm4.7 -9.31c-0.36,-0.04 -0.2,-0.07 -0.31,-0.33 0.29,0.11 0.23,-0.09 0.31,0.33zm-1.81 -1.41c0.41,-0.35 0.71,-0.12 1.14,0.1 0.53,0.25 0.74,0.18 1.24,0.38 0.55,0.23 1.36,1.04 1.72,1.46 0.54,0.64 0.63,1.51 1.13,2.21 0.26,0.38 1.35,0.72 1.87,1.38 -0.52,0.32 -0.57,0.01 -1.05,0.4 0.41,0.43 0.66,0.32 1.13,0.95 -0.64,-0.35 -1.28,-0.44 -1.51,-1.25l1.06 -0.19c-0.62,-0.82 -1.47,-0.65 -1.78,-1.23 -0.77,-1.45 -0.86,-2.59 -2.57,-3.4 -0.47,-0.22 -0.77,-0.21 -1.12,-0.36 -0.6,-0.27 -0.29,-0.36 -1.08,-0.39 0.04,0.7 0.35,0.61 0.63,1.34 0.26,0.68 0.2,0.57 0.61,1.16 -0.13,0.92 -0.52,1.35 0.11,2.25 0.32,-0.38 0.04,-0.51 0.51,-1.02l0.65 1.4c-0.46,-0.17 -0.29,-0.34 -0.56,-0.83 -0.28,0.36 -0.18,0.48 -0.38,0.76 -1.03,-0.48 -0.78,-1.48 -0.55,-2.42 -0.31,-0.46 -0.43,-0.88 -0.65,-1.4 -0.28,-0.66 -0.61,-0.53 -0.55,-1.3zm-2.69 19.9l2.04 0c0.56,-0.19 1.81,-0.3 2.6,-0.52 2.6,-0.73 5.62,-2.98 6.93,-5.21 1.39,-2.4 2.07,-3.96 2.07,-7.01 0.01,-2.55 -0.77,-4.97 -2.16,-7.05 -0.74,-1.11 -0.89,-1.05 -1.34,-1.63 -1.15,-1.47 -3.78,-2.95 -5.7,-3.46 -0.7,-0.19 -2.08,-0.33 -2.51,-0.48l-2.04 0c-1.25,0.42 -2.38,0.14 -4.71,1.38 -2.72,1.44 -4.58,3.51 -5.87,6.27 -1.75,3.77 -1.23,8.56 1.09,12.07 1.55,2.35 4.21,4.37 6.99,5.14 0.75,0.21 2.15,0.34 2.61,0.5z"/>
   <path fill="white" d="M3.58 16.49l0.64 0.03 0.13 -3.1c0.62,0.76 0.61,2.33 1.17,3.1l0.37 0.02c0.45,-0.54 0.73,-2.51 1.19,-3.27l0.23 3.24 0.63 0.01 -0.26 -4.05 -0.8 -0.12 -1.05 3.07 -1.07 -3.02 -0.82 -0.03 -0.36 4.12z"/>
   <path fill="#E98A2A" d="M15.55 15.98c-0.92,-0.97 -0.46,-4.21 1.11,-3 0.54,0.41 0.97,3.68 -1.11,3zm2.15 1.04c0.21,-0.71 -0.08,-0.28 -0.62,-0.83 0.72,-0.79 0.96,-2.11 0.43,-3.08 -0.51,-0.94 -1.91,-1.08 -2.64,-0.29 -0.57,0.63 -1.08,3.82 1.29,3.8 0.45,-0.01 0.32,-0.14 0.81,0.13 0.43,0.23 0.29,0.34 0.73,0.27z"/>
   <path fill="#4278A0" d="M15.55 15.98c2.08,0.68 1.65,-2.59 1.11,-3 -1.57,-1.21 -2.03,2.03 -1.11,3z"/>
   <path fill="#E98A2A" d="M11.53 16.18c0.62,0.75 2.84,0.71 2.5,-1.24 -0.49,-0.45 -0.54,-0.49 -1.13,-0.8 -0.58,-0.3 -0.77,-0.49 -0.59,-1.15 0.93,-0.53 1.2,0.33 1.5,-0.36 -1.74,-1.11 -3.08,0.84 -1.8,1.67 0.46,0.3 1.42,0.67 1.36,1.29 -0.05,0.38 -0.46,0.53 -0.8,0.53 -0.85,0.02 -0.69,-0.5 -1.04,0.06z"/>
   <path fill="#FAFAFA" d="M14.42 5.46c-0.06,0.77 0.27,0.64 0.55,1.3 0.22,0.52 0.34,0.94 0.65,1.4 -0.23,0.94 -0.48,1.94 0.55,2.42 0.2,-0.28 0.1,-0.4 0.38,-0.76 0.27,0.49 0.1,0.66 0.56,0.83l-0.65 -1.4c-0.47,0.51 -0.19,0.64 -0.51,1.02 -0.63,-0.9 -0.24,-1.33 -0.11,-2.25 -0.41,-0.59 -0.35,-0.48 -0.61,-1.16 -0.28,-0.73 -0.59,-0.64 -0.63,-1.34 0.79,0.03 0.48,0.12 1.08,0.39 0.35,0.15 0.65,0.14 1.12,0.36 1.71,0.81 1.8,1.95 2.57,3.4 0.31,0.58 1.16,0.41 1.78,1.23l-1.06 0.19c0.23,0.81 0.87,0.9 1.51,1.25 -0.47,-0.63 -0.72,-0.52 -1.13,-0.95 0.48,-0.39 0.53,-0.08 1.05,-0.4 -0.52,-0.66 -1.61,-1 -1.87,-1.38 -0.5,-0.7 -0.59,-1.57 -1.13,-2.21 -0.36,-0.42 -1.17,-1.23 -1.72,-1.46 -0.5,-0.2 -0.71,-0.13 -1.24,-0.38 -0.43,-0.22 -0.73,-0.45 -1.14,-0.1z"/>
   <path fill="white" d="M8.38 13.49c0.25,0.87 1.02,2.67 0.84,3.46 -0.55,0.39 -0.58,0.16 -0.94,0.37 0.31,1.11 1.64,-0.44 1.91,-1 0.32,-0.67 0.72,-2.14 0.78,-2.83 -1.25,-0.12 -0.36,0.97 -1.21,2.49l-0.78 -2.51 -0.6 0.02z"/>
   <path fill="#E98A2A" d="M18.39 16.54c0.6,0.01 1.49,0.12 1.99,-0.08 -0.1,-0.78 0.09,-0.26 -1.31,-0.44l-0.01 -3.65 -0.67 -0.02 0 4.19z"/>
   <path fill="#F2F2F2" d="M16.23 6.87c-0.08,-0.42 -0.02,-0.22 -0.31,-0.33 0.11,0.26 -0.05,0.29 0.31,0.33z"/>
   <path fill="#D58749" d="M21.3 16.54c0.28,-0.28 -0.18,0 0.15,-0.09l-0.15 0.09z"/>
  </g>
 </g>
</svg>
