<?xml version="1.0" encoding="UTF-8"?>
<!DOCTYPE svg PUBLIC "-//W3C//DTD SVG 1.1//EN" "http://www.w3.org/Graphics/SVG/1.1/DTD/svg11.dtd">
<!-- Creator: CorelDRAW -->
<svg xmlns="http://www.w3.org/2000/svg" xml:space="preserve" width="127px" height="26px" version="1.1" shape-rendering="geometricPrecision" text-rendering="geometricPrecision" image-rendering="optimizeQuality" fill-rule="evenodd" clip-rule="evenodd"
viewBox="0 0 25.1 5.06"
 xmlns:xlink="http://www.w3.org/1999/xlink"
 xmlns:xodm="http://www.corel.com/coreldraw/odm/2003">
 <g id="Layer_x0020_1">
  <metadata id="CorelCorpID_0Corel-Layer"/>
  <g id="_1711294594032">
   <path fill="black" d="M0 0l0 5.06c0.2,0 0.64,0.01 0.82,0 0.04,0 0.05,0.01 0.05,-0.03l0 -3.93c0.03,0.01 0.08,0.09 0.1,0.11l2.89 3.6c0.04,0.05 0.17,0.2 0.2,0.25l5.44 0 0 -0.81 -3.51 0 0 -1.33c0.6,0 1.21,0 1.81,0 0.31,0 0.61,0 0.92,0 0.12,0 0.09,0 0.09,-0.13l0 -0.68 -2.82 0 0 -1.3 3.51 0 0 -0.81 -4.38 0 0 5c-0.02,-0.01 -0.05,-0.06 -0.07,-0.08l-0.14 -0.18c-0.2,-0.23 -0.44,-0.54 -0.64,-0.79 -0.1,-0.12 -0.19,-0.23 -0.28,-0.35 -0.05,-0.06 -0.09,-0.11 -0.14,-0.17 -0.05,-0.06 -0.1,-0.12 -0.14,-0.18 -0.05,-0.06 -0.1,-0.11 -0.14,-0.17 -0.21,-0.26 -0.5,-0.64 -0.71,-0.88 -0.22,-0.27 -0.48,-0.59 -0.71,-0.87l-0.21 -0.26c-0.02,-0.03 -0.04,-0.06 -0.07,-0.09l-0.77 -0.97c-0.01,0 -0.04,-0.01 -0.08,-0.01l-0.38 0c-0.22,0 -0.43,0 -0.64,0z"/>
   <path fill="black" d="M14.6 5.06l1.15 0c-0.02,-0.04 -0.04,-0.05 -0.06,-0.08l-0.32 -0.4c-0.37,-0.47 -0.77,-0.94 -1.14,-1.41l-0.38 -0.48c-0.03,-0.03 -0.04,-0.05 -0.07,-0.08 -0.02,-0.03 -0.05,-0.06 -0.06,-0.08 0.14,-0.17 0.36,-0.45 0.5,-0.63l1.46 -1.81c0.02,-0.03 0.05,-0.06 0.07,-0.08l-1.15 0 -1.45 1.8c-0.04,-0.02 -0.07,-0.06 -0.1,-0.1 -0.03,-0.04 -0.05,-0.07 -0.09,-0.11 -0.17,-0.22 -1.26,-1.56 -1.27,-1.6l-1.15 0 0.88 1.1c0.05,0.06 0.09,0.11 0.13,0.16l0.51 0.63c0.24,0.32 0.52,0.64 0.76,0.95 0.33,0.42 0.69,0.84 1.02,1.26l0.25 0.32c0.04,0.05 0.5,0.6 0.51,0.64z"/>
   <polygon fill="black" points="16.69,0.81 18.45,0.81 18.45,5.06 19.32,5.06 19.32,0.81 21.06,0.81 21.06,0 16.69,0 "/>
   <path fill="black" d="M10.54 5.06l1.15 0 0.57 -0.72c0.05,-0.06 0.09,-0.12 0.15,-0.18l0.39 -0.49c0.02,-0.02 0.03,-0.04 0.04,-0.05 -0.02,-0.05 -0.24,-0.31 -0.28,-0.36l-0.21 -0.26c-0.02,-0.03 -0.05,-0.07 -0.08,-0.09l-1.62 2.01c-0.04,0.05 -0.08,0.09 -0.11,0.14z"/>
   <path fill="black" d="M23.51 3.49c0,0.42 0.41,0.52 0.71,0.6 0.21,0.05 0.49,0.1 0.49,0.32 0,0.4 -0.87,0.41 -0.87,-0.04l-0.36 0c-0.03,0 -0.02,0.02 -0.02,0.05 0.01,0.09 0.02,0.15 0.05,0.22 0.09,0.22 0.32,0.34 0.54,0.38 0.06,0.01 0.11,0 0.17,0.01 0.17,0.03 0.45,-0.03 0.6,-0.12 0.13,-0.08 0.28,-0.25 0.28,-0.46 0,-0.17 -0.03,-0.31 -0.17,-0.43 -0.22,-0.2 -0.48,-0.21 -0.74,-0.29 -0.15,-0.05 -0.28,-0.11 -0.28,-0.27 0,-0.16 0.17,-0.26 0.34,-0.26 0.12,0 0.23,-0.01 0.33,0.07 0.09,0.07 0.09,0.12 0.12,0.21l0.37 0c0,-0.84 -1.56,-0.81 -1.56,0.01z"/>
   <path fill="black" d="M22.73 4.4c0,0.12 -0.05,0.25 -0.16,0.29 -0.15,0.06 -0.34,0.01 -0.4,-0.14 -0.05,-0.13 0.11,-0.11 -0.4,-0.11 0,0.2 0.05,0.33 0.18,0.44 0.27,0.22 0.75,0.2 0.98,-0.03 0.12,-0.12 0.19,-0.26 0.19,-0.45l0 -1.51 -0.39 0 0 1.51z"/>
   <path fill="black" d="M21.02 4.78c0,0.15 0.11,0.24 0.23,0.25 0.11,0 0.23,-0.09 0.23,-0.25 0,-0.17 -0.23,-0.29 -0.39,-0.15 -0.03,0.03 -0.07,0.1 -0.07,0.15z"/>
  </g>
 </g>
</svg>
