<?xml version="1.0" encoding="UTF-8"?>
<!DOCTYPE svg PUBLIC "-//W3C//DTD SVG 1.1//EN" "http://www.w3.org/Graphics/SVG/1.1/DTD/svg11.dtd">
<!-- Creator: CorelDRAW -->
<svg xmlns="http://www.w3.org/2000/svg" xml:space="preserve" width="127px" height="78px" version="1.1" shape-rendering="geometricPrecision" text-rendering="geometricPrecision" image-rendering="optimizeQuality" fill-rule="evenodd" clip-rule="evenodd"
viewBox="0 0 10.67 6.54"
 xmlns:xlink="http://www.w3.org/1999/xlink"
 xmlns:xodm="http://www.corel.com/coreldraw/odm/2003">
 <g id="Layer_x0020_1">
  <metadata id="CorelCorpID_0Corel-Layer"/>
  <g id="_1711434393216">
   <path fill="#333333" d="M6.35 3l0 -0.39c0,-0.03 0.02,-0.03 0.04,-0.04l0.14 -0.09c0.04,-0.02 0.18,-0.11 0.21,-0.11 0.01,0 0.03,0.02 0.05,0.03 0.01,0 0.03,0.01 0.04,0.02l0.19 0.11c0.03,0.02 0.09,0.05 0.09,0.07l0 0.41c0,0.02 -0.03,0.03 -0.04,0.04 -0.04,0.02 -0.32,0.19 -0.34,0.19 -0.02,0 -0.29,-0.17 -0.34,-0.19 -0.02,-0.01 -0.04,-0.02 -0.04,-0.05zm0.73 -1.33c-0.04,0 -0.24,-0.14 -0.3,-0.16 -0.07,-0.03 -0.14,0.03 -0.21,0.07l-0.19 0.11c-0.04,0.02 -0.06,0.03 -0.1,0.05l-0.33 0.2c-0.02,0 -0.03,0.01 -0.05,0.02 -0.04,0.03 -0.25,0.14 -0.28,0.18 -0.03,0.02 -0.04,0.06 -0.04,0.11l0 1.11c0,0.13 0.06,0.14 0.16,0.19l0.52 0.31c0.05,0.03 0.1,0.05 0.15,0.08l0.15 0.09c0.03,0.01 0.05,0.03 0.07,0.04 0.02,0.01 0.03,0.02 0.04,0.02 0.09,0.05 0.16,-0.02 0.23,-0.05 0.02,-0.02 0.05,-0.03 0.07,-0.05l0.51 -0.29c0.03,-0.02 0.35,-0.2 0.36,-0.22 0.02,-0.01 0.04,-0.04 0.04,-0.07l0 -2.97c0,-0.03 -0.03,-0.07 -0.05,-0.09l-0.59 -0.33c-0.07,-0.04 -0.12,-0.02 -0.12,0.03 -0.01,0.04 -0.01,1.36 0,1.55 0,0.04 -0.01,0.07 -0.04,0.07z"/>
   <path fill="#333333" d="M0 2.19l0 1.56c0,0.06 0.04,0.09 0.08,0.08l0.59 -0.34c0.08,-0.04 0.1,-0.07 0.1,-0.16 0,-0.23 0,-0.45 0,-0.68 0,-0.11 0.06,-0.12 0.15,-0.18l0.16 -0.09c0.09,-0.05 0.13,-0.01 0.2,0.03 0.04,0.03 0.08,0.05 0.12,0.07 0.02,0.02 0.04,0.03 0.06,0.04 0.06,0.03 0.07,0.07 0.07,0.12l0 0.68c0,0.15 0.04,0.14 0.16,0.21l0.25 0.14c0.04,0.03 0.08,0.05 0.12,0.07 0.04,0.03 0.08,0.05 0.12,0.07 0.02,0.01 0.04,0.03 0.07,0.02 0.07,-0.02 0.05,-0.13 0.05,-0.24l-0.01 -0.95c0,-0.13 0,-0.26 0,-0.39 0,-0.08 0.01,-0.11 -0.03,-0.15 -0.02,-0.02 -0.1,-0.06 -0.12,-0.08l-0.91 -0.52c-0.08,-0.05 -0.11,-0.03 -0.17,0.01 -0.03,0.01 -0.05,0.02 -0.08,0.04 -0.14,0.08 -0.3,0.17 -0.44,0.25 -0.07,0.05 -0.48,0.27 -0.51,0.3 -0.01,0.02 -0.03,0.05 -0.03,0.09z"/>
   <path fill="#333333" d="M8.38 2.23l0 1.13c0,0.09 0.04,0.11 0.09,0.14 0.15,0.09 0.3,0.17 0.45,0.26 0.05,0.02 0.09,0.05 0.14,0.08l0.41 0.23c0.02,0.01 0.05,0.01 0.08,0.01 0.02,0 0.34,-0.18 0.4,-0.21l0.17 -0.1c0.07,-0.04 0.11,-0.05 0.11,-0.11 0,-0.03 -0.03,-0.04 -0.05,-0.05 -0.02,-0.02 -0.04,-0.03 -0.07,-0.04l-0.91 -0.53c-0.02,-0.01 -0.05,-0.03 -0.05,-0.06l0 -0.38c0,-0.04 0.06,-0.07 0.11,-0.1 0.02,-0.01 0.24,-0.14 0.26,-0.14 0.03,0 0.17,0.09 0.21,0.11l0.13 0.07c0.02,0.01 0.04,0.03 0.05,0.06 0,0.06 -0.01,0.27 0,0.31 0.01,0.03 0.03,0.05 0.07,0.05 0.02,0 0.16,-0.09 0.19,-0.11l0.45 -0.26c0.03,-0.02 0.05,-0.06 0.05,-0.1l0 -0.3c0,-0.08 -0.1,-0.12 -0.17,-0.16l-0.88 -0.51c-0.1,-0.06 -0.13,-0.03 -0.25,0.04l-0.14 0.09c-0.06,0.03 -0.1,0.05 -0.15,0.08l-0.6 0.35c-0.06,0.03 -0.1,0.05 -0.1,0.15z"/>
   <path fill="#418C3C" d="M2.8 2.49c0.01,0.01 0.01,0.03 0.01,0.04 0,0.02 0,0.04 0,0.05 0.01,0.01 0.03,0.02 0.05,0.04 0.02,0.01 0.04,0.02 0.06,0.03l0.67 0.43c0.02,0.01 0.04,0.02 0.06,0.03 0.01,0.01 0.01,0.01 0.03,0.02 0.04,0.04 0.29,0.19 0.36,0.23l0.51 0.33c0.01,0 0.01,0.01 0.02,0.01 0.02,0.01 0.02,0.01 0.03,0.02l0.3 -0.17c0.02,-0.01 0.04,-0.02 0.06,-0.03 0.04,-0.02 0.08,-0.04 0.11,-0.08 0.02,-0.05 0.01,-0.29 0.01,-0.36l0 -0.75c0,-0.22 0.01,-0.2 -0.23,-0.33 -0.04,-0.03 -0.08,-0.05 -0.12,-0.07 -0.04,-0.02 -0.08,-0.05 -0.12,-0.07l-0.47 -0.27c-0.02,-0.02 -0.04,-0.02 -0.06,-0.04 -0.02,-0.01 -0.04,-0.02 -0.06,-0.03 -0.1,-0.06 -0.15,0 -0.26,0.06l-0.71 0.41c-0.04,0.02 -0.08,0.04 -0.12,0.07 -0.14,0.07 -0.13,0.08 -0.13,0.24 0,0.06 0,0.13 0,0.19z"/>
   <path fill="#529D43" d="M4.11 4.65l0 1.16c0,0.02 0.02,0.06 0.03,0.08 0.05,0.07 0.12,0.09 0.2,0.14 0.03,0.02 0.05,0.03 0.07,0.04l0.08 0.04c0.08,0.04 0.11,0.05 0.21,0.05 0.1,0 0.18,-0.04 0.22,-0.1 0.05,-0.07 0.06,-0.15 0.06,-0.27l0 -1c0,-0.07 -0.03,-0.06 -0.16,-0.06 -0.04,0 -0.03,0.07 -0.03,0.1l0 0.86c0,0.08 0.01,0.19 -0.02,0.23 -0.06,0.1 -0.17,0.06 -0.25,0.01l-0.16 -0.09c-0.02,-0.01 -0.03,-0.02 -0.04,-0.03 -0.01,0 -0.03,-0.01 -0.03,-0.03l0 -1.12c0,-0.02 0.01,-0.02 0.02,-0.03l0.12 -0.07c0.01,0 0.02,-0.01 0.03,-0.02 0.03,-0.01 0.04,-0.02 0.07,-0.03 0.16,-0.09 0.34,-0.2 0.49,-0.29 0.03,-0.01 0.04,-0.02 0.07,-0.03l0.15 -0.09c0.04,-0.03 0.04,-0.02 0.1,0.01l0.56 0.33c0.04,0.02 0.08,0.04 0.12,0.07 0.01,0 0.02,0.01 0.03,0.02l0.16 0.09c0.02,0.01 0.05,0.02 0.05,0.04l0 1.12c0,0.03 -0.1,0.07 -0.11,0.08l-0.68 0.4c-0.03,0.01 -0.17,0.1 -0.19,0.1 -0.02,0 -0.09,-0.04 -0.11,-0.06 -0.04,-0.02 -0.08,-0.04 -0.11,-0.06 -0.09,-0.06 -0.03,-0.03 -0.17,0.02 -0.03,0.01 -0.05,0.01 -0.06,0.03 0,0.02 0,0.02 0.02,0.02l0.3 0.18c0.12,0.08 0.19,0.05 0.31,-0.02l0.6 -0.35c0.07,-0.04 0.24,-0.13 0.29,-0.17 0.05,-0.03 0.09,-0.09 0.09,-0.15l0 -1.15c0,-0.11 -0.09,-0.16 -0.16,-0.19l-0.15 -0.09c-0.17,-0.1 -0.36,-0.2 -0.52,-0.3l-0.23 -0.13c-0.06,-0.04 -0.15,-0.04 -0.21,0 -0.03,0.01 -0.05,0.02 -0.07,0.04l-0.9 0.52c-0.04,0.03 -0.09,0.08 -0.09,0.15z"/>
   <path fill="#3FA031" d="M4.6 3.72c-0.01,-0.01 -0.01,-0.01 -0.03,-0.02 -0.01,0 -0.01,-0.01 -0.02,-0.01l-0.51 -0.33c-0.07,-0.04 -0.32,-0.19 -0.36,-0.23 -0.02,-0.01 -0.02,-0.01 -0.03,-0.02 -0.02,-0.01 -0.04,-0.02 -0.06,-0.03l-0.67 -0.43c-0.02,-0.01 -0.04,-0.02 -0.06,-0.03 -0.02,-0.02 -0.04,-0.03 -0.05,-0.04 0,-0.01 0,-0.03 0,-0.05 0,-0.01 0,-0.03 -0.01,-0.04 0,0.15 0,0.31 0,0.47 0,0.09 -0.01,0.4 0.01,0.46 0.02,0.06 0.13,0.11 0.2,0.15 0.03,0.01 0.05,0.03 0.08,0.04 0.16,0.09 0.35,0.22 0.52,0.3l0.22 0.13c0.13,0.07 0.12,0.06 0.25,-0.01 0.16,-0.09 0.33,-0.2 0.49,-0.28l0.03 -0.03z"/>
   <path fill="#539D42" d="M5.1 5c0,0.31 0.33,0.29 0.57,0.32 0.07,0.02 0.19,0.04 0.19,0.11 0,0.07 -0.01,0.11 -0.08,0.14 -0.09,0.04 -0.38,0.04 -0.46,-0.02 -0.03,-0.02 -0.04,-0.05 -0.06,-0.08 0,-0.02 -0.01,-0.03 -0.01,-0.05 -0.01,-0.05 -0.03,-0.04 -0.15,-0.04 -0.04,0 -0.03,0.03 -0.03,0.07 0,0.08 0.04,0.15 0.09,0.2 0.11,0.11 0.3,0.12 0.46,0.12 0.12,0 0.23,-0.03 0.3,-0.08 0.06,-0.04 0.11,-0.1 0.13,-0.17 0.02,-0.08 0.01,-0.17 -0.03,-0.24 -0.12,-0.17 -0.54,-0.13 -0.68,-0.2 -0.03,-0.02 -0.04,-0.03 -0.05,-0.06 -0.01,-0.13 0.14,-0.15 0.24,-0.15 0.39,0 0.25,0.2 0.35,0.2 0.06,0 0.14,0.01 0.14,-0.03 0,-0.1 -0.06,-0.22 -0.14,-0.27 -0.23,-0.13 -0.78,-0.11 -0.78,0.23z"/>
   <path fill="#539D42" d="M9.31 2.68l0 0.22c0,0.02 0.08,0.06 0.11,0.08 0.13,0.08 0.1,0.07 0.17,0.03 0.02,-0.01 0.03,-0.02 0.05,-0.03 0.03,-0.02 0.11,-0.06 0.11,-0.08l0 -0.22c0,-0.02 0,-0.03 -0.01,-0.03l-0.09 -0.05c-0.13,-0.08 -0.11,-0.08 -0.18,-0.04 -0.02,0.02 -0.03,0.02 -0.06,0.04l-0.08 0.05c-0.01,0 -0.02,0.01 -0.02,0.03z"/>
  </g>
 </g>
</svg>
