<?xml version="1.0" encoding="UTF-8"?>
<!DOCTYPE svg PUBLIC "-//W3C//DTD SVG 1.1//EN" "http://www.w3.org/Graphics/SVG/1.1/DTD/svg11.dtd">
<!-- Creator: CorelDRAW -->
<svg xmlns="http://www.w3.org/2000/svg" xml:space="preserve" width="127px" height="114px" version="1.1" shape-rendering="geometricPrecision" text-rendering="geometricPrecision" image-rendering="optimizeQuality" fill-rule="evenodd" clip-rule="evenodd"
viewBox="0 0 25.89 23.18"
 xmlns:xlink="http://www.w3.org/1999/xlink"
 xmlns:xodm="http://www.corel.com/coreldraw/odm/2003">
 <g id="Layer_x0020_1">
  <metadata id="CorelCorpID_0Corel-Layer"/>
  <g id="_1711298299056">
   <path fill="#002C4B" d="M4.92 3.84c0,1.14 0.2,2.13 0.47,3.19 0.02,0.08 0.05,0.14 0.05,0.21 -0.18,0 -0.74,0.22 -0.91,0.28 -0.43,0.16 -0.85,0.34 -1.27,0.51 -0.91,0.37 -2.1,1.11 -2.66,1.85 -0.33,0.44 -0.6,0.93 -0.6,1.53 0,0.44 0.06,0.83 0.24,1.2 0.07,0.14 0.13,0.25 0.2,0.38l0.53 0.67 0.48 0.43c1,0.79 2.23,1.3 3.47,1.64 0.11,0.04 0.38,0.13 0.48,0.13 -0.01,0.06 -0.03,0.1 -0.05,0.17 -0.21,0.72 -0.41,2.5 -0.41,3.17 0,1.35 0.19,2.8 1.42,3.55 0.51,0.3 0.93,0.35 1.55,0.35 0.59,0 1.15,-0.2 1.59,-0.37 0.13,-0.06 0.2,-0.11 0.33,-0.16l0.33 -0.17c0.25,-0.16 0.51,-0.31 0.75,-0.48 0.06,-0.04 0.09,-0.06 0.15,-0.1 0.38,-0.28 0.86,-0.67 1.2,-1 0.05,-0.05 0.09,-0.08 0.14,-0.13l0.51 -0.48c0.1,0.15 0.24,0.25 0.37,0.38 0.05,0.05 0.08,0.07 0.14,0.12 0.45,0.43 1.22,1 1.73,1.34 1.14,0.76 2.84,1.63 4.28,0.78 0.36,-0.21 0.62,-0.49 0.85,-0.83 0.8,-1.19 0.81,-3.04 0.52,-4.51 -0.1,-0.49 -0.18,-0.95 -0.32,-1.42 -0.02,-0.07 -0.04,-0.13 -0.05,-0.21 0.15,0 0.35,-0.08 0.47,-0.12 0.44,-0.16 0.89,-0.32 1.32,-0.5 0.49,-0.21 0.96,-0.41 1.42,-0.68 0.19,-0.12 0.37,-0.21 0.55,-0.34 0.12,-0.1 0.24,-0.16 0.35,-0.26 0.48,-0.39 0.84,-0.77 1.11,-1.32 0.18,-0.35 0.24,-0.75 0.24,-1.19 0,-0.66 -0.4,-1.33 -0.7,-1.71 -0.09,-0.11 -0.18,-0.21 -0.28,-0.32 -0.21,-0.2 -0.42,-0.39 -0.66,-0.56l-0.74 -0.47c-0.13,-0.08 -0.25,-0.14 -0.39,-0.21 -0.56,-0.28 -1.14,-0.49 -1.74,-0.69 -0.19,-0.07 -0.75,-0.25 -0.95,-0.27 0.01,-0.07 0.03,-0.1 0.05,-0.18 0.01,-0.05 0.02,-0.12 0.03,-0.18 0.03,-0.13 0.06,-0.26 0.08,-0.39 0.05,-0.27 0.09,-0.52 0.13,-0.8 0.11,-0.69 0.16,-1.39 0.16,-2.11 0,-1.74 -0.74,-3.56 -2.82,-3.56 -1.19,0 -2.23,0.57 -2.95,1.05l-1.67 1.34c-0.16,0.14 -0.36,0.4 -0.51,0.5 -0.13,-0.19 -1.13,-0.99 -1.35,-1.16 -0.11,-0.07 -0.19,-0.14 -0.29,-0.21 -1.22,-0.91 -3.24,-2.12 -4.84,-1.16 -1.1,0.66 -1.53,2.07 -1.53,3.48zm2.79 -2.74c-1.01,0.09 -1.41,0.86 -1.53,1.88 -0.12,1 0.02,2.17 0.19,3.13 0.19,1.02 0.16,0.7 2.4,0.42 1.05,-0.14 2.09,-0.22 3.15,-0.27 0.56,-0.02 1.12,-0.03 1.67,-0.02 0.37,0 0.62,-0.31 0.3,-0.69l-1.82 -2.03c-0.27,-0.27 -1.06,-0.97 -1.36,-1.19 -0.76,-0.56 -1.86,-1.32 -3,-1.23zm11.43 15.13c-2.11,0.35 -4.03,0.56 -6.23,0.58 -0.23,0 -0.62,-0.05 -0.77,0.08 -0.21,0.17 -0.18,0.39 -0.02,0.58l1.19 1.36 0.84 0.86c0.07,0.07 0.14,0.15 0.21,0.22 0.67,0.57 1.31,1.17 2.22,1.62 0.81,0.39 1.88,0.68 2.62,0.06 0.6,-0.5 0.74,-1.7 0.69,-2.72 -0.04,-0.72 -0.16,-1.55 -0.29,-2.26 -0.05,-0.24 -0.17,-0.42 -0.46,-0.38zm-11.6 -2.84c-0.09,0.04 -0.08,0.02 -0.15,0.09 -0.09,0.1 -0.16,0.34 -0.21,0.48 -0.57,1.63 -1.17,3.51 -1.18,5.26 -0.01,1.12 0.29,2.25 1.02,2.67 1,0.59 2.52,-0.32 3.3,-0.89 0.63,-0.45 0.94,-0.72 1.53,-1.22 0.21,-0.18 0.17,-0.41 -0.01,-0.61 -0.14,-0.18 -0.27,-0.34 -0.41,-0.52 -1.04,-1.27 -2.19,-2.9 -3.02,-4.35 -0.11,-0.19 -0.22,-0.38 -0.33,-0.57 -0.11,-0.19 -0.23,-0.45 -0.54,-0.34zm10.4 -12.28c-1.22,0.13 -2.67,1.23 -3.54,1.98 -0.11,0.1 -0.41,0.33 -0.46,0.45 -0.13,0.28 0.12,0.47 0.23,0.62 0.13,0.16 0.27,0.34 0.4,0.5l0.81 1.04c0.13,0.18 0.25,0.36 0.39,0.54 0.75,1.01 1.49,2.28 2.13,3.37 0.12,0.21 0.39,0.3 0.6,0.09 0.11,-0.12 0.21,-0.47 0.27,-0.66 0.62,-1.69 1.39,-4.35 1.03,-6.17 -0.19,-0.97 -0.72,-1.88 -1.86,-1.76zm2.42 7.36c-0.27,0.07 -0.29,0.3 -0.39,0.55 -0.09,0.23 -0.17,0.45 -0.26,0.67 -0.37,0.91 -0.73,1.72 -1.15,2.6 -0.44,0.88 -0.83,1.59 -1.32,2.42 -0.1,0.18 -0.31,0.42 -0.14,0.66 0.16,0.24 0.43,0.16 0.73,0.11 1.8,-0.31 4.19,-0.85 5.67,-1.83 0.53,-0.36 1.63,-1.22 1.41,-2.27 -0.05,-0.26 -0.17,-0.47 -0.29,-0.64 -0.07,-0.1 -0.13,-0.17 -0.22,-0.25 -0.07,-0.07 -0.14,-0.17 -0.23,-0.23 -0.41,-0.31 -0.62,-0.5 -1.13,-0.76 -0.4,-0.2 -0.83,-0.41 -1.28,-0.59 -0.24,-0.09 -1.18,-0.49 -1.4,-0.44zm-12.04 -0.81c-2.12,0.37 -4.1,0.81 -5.74,1.76 -0.59,0.34 -1.63,1.16 -1.63,2.11 0,1.61 3.06,2.76 4.34,3.17 0.33,0.1 0.46,-0.07 0.55,-0.32l0.81 -2c0.59,-1.36 1.18,-2.48 1.89,-3.74 0.19,-0.33 0.5,-0.65 0.17,-0.92 -0.13,-0.1 -0.23,-0.09 -0.39,-0.06zm2.53 -0.28c-0.34,0.06 -0.44,0.25 -0.59,0.51l-1.6 2.79c-0.1,0.17 -0.35,0.55 -0.37,0.75 -0.04,0.32 0.17,0.58 0.29,0.8 0.52,0.93 1.09,1.87 1.61,2.8 0.14,0.25 0.25,0.5 0.52,0.6 0.23,0.09 2.67,0.05 3.25,0.05 0.28,0 0.85,0.03 1.1,-0.01 0.33,-0.06 0.44,-0.28 0.58,-0.52 0.52,-0.91 1.1,-1.88 1.6,-2.79 0.1,-0.18 0.34,-0.53 0.37,-0.75 0.04,-0.31 -0.18,-0.59 -0.3,-0.8l-1.21 -2.11c-0.14,-0.24 -0.27,-0.46 -0.4,-0.69 -0.14,-0.25 -0.24,-0.49 -0.52,-0.6 -0.23,-0.08 -2.67,-0.04 -3.24,-0.04 -0.28,0 -0.85,-0.03 -1.09,0.01z"/>
   <path fill="#FED84C" d="M10.85 7.38c-0.34,0.06 -0.44,0.25 -0.59,0.51l-1.6 2.79c-0.1,0.17 -0.35,0.55 -0.37,0.75 -0.04,0.32 0.17,0.58 0.29,0.8 0.52,0.93 1.09,1.87 1.61,2.8 0.14,0.25 0.25,0.5 0.52,0.6 0.23,0.09 2.67,0.05 3.25,0.05 0.28,0 0.85,0.03 1.1,-0.01 0.33,-0.06 0.44,-0.28 0.58,-0.52 0.52,-0.91 1.1,-1.88 1.6,-2.79 0.1,-0.18 0.34,-0.53 0.37,-0.75 0.04,-0.31 -0.18,-0.59 -0.3,-0.8l-1.21 -2.11c-0.14,-0.24 -0.27,-0.46 -0.4,-0.69 -0.14,-0.25 -0.24,-0.49 -0.52,-0.6 -0.23,-0.08 -2.67,-0.04 -3.24,-0.04 -0.28,0 -0.85,-0.03 -1.09,0.01z"/>
   <path fill="#002C4B" d="M11.36 8.23c-0.45,0.08 -0.57,0.45 -0.84,0.92 -0.21,0.37 -0.42,0.73 -0.63,1.1 -0.12,0.22 -0.57,0.94 -0.61,1.14 -0.06,0.28 0.07,0.46 0.18,0.65l1.28 2.23c0.12,0.21 0.19,0.38 0.4,0.48 0.25,0.13 2.02,0.07 2.53,0.07 0.63,0 1.1,0.13 1.39,-0.37l0.95 -1.66c0.1,-0.2 0.21,-0.37 0.31,-0.56 0.09,-0.14 0.26,-0.39 0.29,-0.57 0.07,-0.36 -0.28,-0.83 -0.5,-1.23l-0.95 -1.66c-0.12,-0.21 -0.21,-0.37 -0.41,-0.48 -0.25,-0.12 -2.02,-0.07 -2.53,-0.07 -0.23,0 -0.66,-0.02 -0.86,0.01z"/>
   <path fill="#FE4154" d="M8.32 7.66c-2.12,0.37 -4.1,0.81 -5.74,1.76 -0.59,0.34 -1.63,1.16 -1.63,2.11 0,1.61 3.06,2.76 4.34,3.17 0.33,0.1 0.46,-0.07 0.55,-0.32l0.81 -2c0.59,-1.36 1.18,-2.48 1.89,-3.74 0.19,-0.33 0.5,-0.65 0.17,-0.92 -0.13,-0.1 -0.23,-0.09 -0.39,-0.06z"/>
   <path fill="#FE4154" d="M20.36 8.47c-0.27,0.07 -0.29,0.3 -0.39,0.55 -0.09,0.23 -0.17,0.45 -0.26,0.67 -0.37,0.91 -0.73,1.72 -1.15,2.6 -0.44,0.88 -0.83,1.59 -1.32,2.42 -0.1,0.18 -0.31,0.42 -0.14,0.66 0.16,0.24 0.43,0.16 0.73,0.11 1.8,-0.31 4.19,-0.85 5.67,-1.83 0.53,-0.36 1.63,-1.22 1.41,-2.27 -0.05,-0.26 -0.17,-0.47 -0.29,-0.64 -0.07,-0.1 -0.13,-0.17 -0.22,-0.25 -0.07,-0.07 -0.14,-0.17 -0.23,-0.23 -0.41,-0.31 -0.62,-0.5 -1.13,-0.76 -0.4,-0.2 -0.83,-0.41 -1.28,-0.59 -0.24,-0.09 -1.18,-0.49 -1.4,-0.44z"/>
   <path fill="#FE4154" d="M17.94 1.11c-1.22,0.13 -2.67,1.23 -3.54,1.98 -0.11,0.1 -0.41,0.33 -0.46,0.45 -0.13,0.28 0.12,0.47 0.23,0.62 0.13,0.16 0.27,0.34 0.4,0.5l0.81 1.04c0.13,0.18 0.25,0.36 0.39,0.54 0.75,1.01 1.49,2.28 2.13,3.37 0.12,0.21 0.39,0.3 0.6,0.09 0.11,-0.12 0.21,-0.47 0.27,-0.66 0.62,-1.69 1.39,-4.35 1.03,-6.17 -0.19,-0.97 -0.72,-1.88 -1.86,-1.76z"/>
   <path fill="#FE4154" d="M7.54 13.39c-0.09,0.04 -0.08,0.02 -0.15,0.09 -0.09,0.1 -0.16,0.34 -0.21,0.48 -0.57,1.63 -1.17,3.51 -1.18,5.26 -0.01,1.12 0.29,2.25 1.02,2.67 1,0.59 2.52,-0.32 3.3,-0.89 0.63,-0.45 0.94,-0.72 1.53,-1.22 0.21,-0.18 0.17,-0.41 -0.01,-0.61 -0.14,-0.18 -0.27,-0.34 -0.41,-0.52 -1.04,-1.27 -2.19,-2.9 -3.02,-4.35 -0.11,-0.19 -0.22,-0.38 -0.33,-0.57 -0.11,-0.19 -0.23,-0.45 -0.54,-0.34z"/>
   <path fill="#FE4154" d="M19.14 16.23c-2.11,0.35 -4.03,0.56 -6.23,0.58 -0.23,0 -0.62,-0.05 -0.77,0.08 -0.21,0.17 -0.18,0.39 -0.02,0.58l1.19 1.36 0.84 0.86c0.07,0.07 0.14,0.15 0.21,0.22 0.67,0.57 1.31,1.17 2.22,1.62 0.81,0.39 1.88,0.68 2.62,0.06 0.6,-0.5 0.74,-1.7 0.69,-2.72 -0.04,-0.72 -0.16,-1.55 -0.29,-2.26 -0.05,-0.24 -0.17,-0.42 -0.46,-0.38z"/>
   <path fill="#FE4154" d="M7.71 1.1c-1.01,0.09 -1.41,0.86 -1.53,1.88 -0.12,1 0.02,2.17 0.19,3.13 0.19,1.02 0.16,0.7 2.4,0.42 1.05,-0.14 2.09,-0.22 3.15,-0.27 0.56,-0.02 1.12,-0.03 1.67,-0.02 0.37,0 0.62,-0.31 0.3,-0.69l-1.82 -2.03c-0.27,-0.27 -1.06,-0.97 -1.36,-1.19 -0.76,-0.56 -1.86,-1.32 -3,-1.23z"/>
   <path fill="#FED84C" d="M11.86 9.17c-0.37,0.07 -0.46,0.32 -0.63,0.61 -0.14,0.24 -0.84,1.41 -0.88,1.6 -0.08,0.35 0.18,0.67 0.32,0.91l0.68 1.18c0.32,0.54 0.67,0.42 1.43,0.42 0.33,0 0.95,0.03 1.24,-0.01 0.36,-0.06 0.48,-0.32 0.64,-0.6 0.15,-0.26 0.3,-0.53 0.45,-0.8 0.69,-1.18 0.6,-0.83 -0.33,-2.5 -0.14,-0.24 -0.29,-0.58 -0.53,-0.73 -0.24,-0.15 -0.82,-0.09 -1.14,-0.09 -0.31,0 -0.99,-0.04 -1.25,0.01z"/>
   <path fill="#002C4B" d="M12.38 10.07c-0.41,0.07 -0.53,0.41 -0.74,0.78 -0.23,0.41 -0.42,0.59 -0.13,1.11 0.48,0.87 0.48,1.03 1.25,1.03 0.21,0 0.58,0.02 0.77,-0.01 0.4,-0.08 0.53,-0.46 0.72,-0.79 0.42,-0.69 0.37,-0.73 -0.14,-1.58 -0.3,-0.51 -0.36,-0.56 -0.98,-0.56 -0.2,0 -0.57,-0.02 -0.75,0.02z"/>
   <path fill="#FED84C" d="M12.79 10.96c-0.74,0.21 -0.44,1.33 0.31,1.13 0.27,-0.07 0.51,-0.36 0.41,-0.72 -0.07,-0.27 -0.36,-0.51 -0.72,-0.41z"/>
  </g>
 </g>
</svg>
