<?xml version="1.0" encoding="UTF-8"?>
<!DOCTYPE svg PUBLIC "-//W3C//DTD SVG 1.1//EN" "http://www.w3.org/Graphics/SVG/1.1/DTD/svg11.dtd">
<!-- Creator: CorelDRAW -->
<svg xmlns="http://www.w3.org/2000/svg" xml:space="preserve" width="127px" height="163px" version="1.1" shape-rendering="geometricPrecision" text-rendering="geometricPrecision" image-rendering="optimizeQuality" fill-rule="evenodd" clip-rule="evenodd"
viewBox="0 0 11.01 14.08"
 xmlns:xlink="http://www.w3.org/1999/xlink"
 xmlns:xodm="http://www.corel.com/coreldraw/odm/2003">
 <g id="Layer_x0020_1">
  <metadata id="CorelCorpID_0Corel-Layer"/>
  <g id="_2797388901216">
   <path fill="#754CBC" d="M3.63 6.72c-0.47,-0.83 -0.74,-1.61 -0.74,-2.77 0.01,-1.49 0.65,-2.87 2.06,-3.2 1.6,-0.38 2.38,0.98 2.63,2.3 0.05,0.25 0,0.16 0.73,0.39 -0.03,-0.83 -0.32,-1.59 -0.68,-2.15 -0.86,-1.35 -2.58,-1.7 -3.84,-0.76 -0.51,0.38 -0.96,0.88 -1.24,1.62 -0.6,1.63 -0.36,3.26 0.37,4.66 0.15,0.3 0.18,0.17 0.08,0.48 -0.26,0.88 1.02,1.41 1.45,0.6 0.24,-0.47 0.06,-1.16 -0.82,-1.17z"/>
   <path fill="#754CBC" d="M0 7.68c0,3 3.23,3.27 5.46,1.99 0.13,-0.08 0.24,-0.17 0.35,-0.24 0.67,-0.44 1.28,-1.13 1.67,-1.84 0.09,-0.17 0.09,-0.25 0.27,-0.31 0.99,-0.36 0.57,-1.55 -0.22,-1.54 -0.62,0.02 -0.98,0.69 -0.67,1.18 0.07,0.12 0.07,0.05 0.12,0.19 -0.12,0.18 -0.21,0.35 -0.33,0.53 -0.42,0.55 -0.81,0.93 -1.4,1.31 -0.74,0.47 -1.69,0.89 -2.78,0.76 -0.59,-0.07 -0.92,-0.22 -1.25,-0.55 -0.33,-0.34 -0.52,-0.66 -0.59,-1.19 -0.1,-0.73 0.27,-1.48 0.72,-1.93 0.1,-0.11 0.14,-0.13 0.22,-0.22 0.12,-0.12 0.14,-0.12 0.24,-0.22 -0.05,-0.21 -0.14,-0.45 -0.17,-0.69 -0.19,0.06 -0.75,0.61 -0.87,0.77 -0.08,0.11 -0.14,0.2 -0.23,0.32 -0.3,0.43 -0.53,1.04 -0.54,1.68z"/>
   <path fill="#754CBC" d="M6.24 9.99c0.09,0.09 0.24,0.12 0.36,0.16 2.89,1.07 5.48,-1.25 3.96,-3.92 -0.36,-0.63 -1.02,-1.3 -1.62,-1.67 -1.03,-0.64 -2.04,-0.9 -3.49,-0.92 -0.05,-0.02 -0.25,-0.48 -0.83,-0.4 -0.34,0.04 -0.59,0.3 -0.65,0.62 -0.16,0.84 0.91,1.24 1.36,0.66 0.2,-0.25 0.13,-0.27 1.03,-0.17 0.68,0.07 1.37,0.3 1.94,0.63 0.82,0.47 1.52,1.07 1.87,2 0.3,0.82 0.21,1.39 -0.24,2 -0.65,0.86 -1.81,1 -2.89,0.58 -0.24,-0.09 -0.26,-0.01 -0.43,0.13 -0.11,0.1 -0.26,0.19 -0.37,0.3z"/>
   <path fill="#303030" d="M0.07 14.04l0.68 0.01 -0.01 -1.08c0.32,0.01 0.32,0.01 0.46,0.24 0.53,0.91 0.29,0.88 1.25,0.84 -0.07,-0.24 -0.63,-1.02 -0.8,-1.21 0.22,-0.19 0.4,-0.21 0.51,-0.55 0.11,-0.33 0,-0.66 -0.18,-0.84 -0.39,-0.39 -1.26,-0.32 -1.91,-0.29l0 2.88zm0.67 -1.55c0.4,0.08 0.79,-0.02 0.79,-0.42 0,-0.41 -0.37,-0.44 -0.78,-0.41l-0.01 0.83z"/>
   <path fill="#303030" d="M5.77 12.1c-0.17,-0.07 -0.53,-0.33 -1,0.03 -0.64,0.48 -0.46,2.15 0.59,1.93 0.23,-0.05 0.3,-0.19 0.45,-0.23 0.12,0.28 0.22,0.26 0.58,0.21l0 -2.95 -0.61 -0.01 -0.01 1.02zm0 0.96l0 -0.53c-0.53,-0.39 -0.77,0.14 -0.71,0.67 0.02,0.25 0.12,0.44 0.41,0.4 0.32,-0.05 0.3,-0.22 0.3,-0.54z"/>
   <path fill="#303030" d="M4.25 13.72l-0.22 -0.27c-0.14,0 -1.08,0.51 -1.08,-0.32 0.3,0 1.08,0.04 1.3,-0.02 0.14,-0.57 -0.22,-1.05 -0.68,-1.13 -1.34,-0.26 -1.67,1.49 -0.74,1.97 0.45,0.24 1.19,0.14 1.42,-0.23zm-1.29 -0.95l0.74 0c0,-0.54 -0.72,-0.51 -0.74,0z"/>
   <path fill="#303030" d="M8.01 13.85c0.01,0.01 0.01,0.01 0.02,0.03l0.1 0.15 0.47 0.03 0.01 -2.07 -0.63 0 0 1.48c-0.98,0.62 -0.53,-0.89 -0.66,-1.48l-0.6 -0.01c-0.06,0.34 -0.04,1.47 0.07,1.71 0.23,0.5 0.77,0.47 1.22,0.16z"/>
   <path fill="#303030" d="M9.41 12.98c-0.13,0.27 -0.61,0.85 -0.67,1.07 0.89,-0.02 0.49,0.11 1.06,-0.7 0.14,0.13 0.23,0.39 0.35,0.56 0.15,0.21 0.47,0.14 0.78,0.14 -0.1,-0.28 -0.54,-0.78 -0.67,-1.1 0.15,-0.26 0.56,-0.78 0.64,-0.96 -0.53,-0.01 -0.68,-0.14 -1.01,0.64 -0.17,-0.1 -0.3,-0.47 -0.45,-0.63l-0.68 -0.01 0.65 0.99z"/>
  </g>
 </g>
</svg>
