<?xml version="1.0" encoding="UTF-8"?>
<!DOCTYPE svg PUBLIC "-//W3C//DTD SVG 1.1//EN" "http://www.w3.org/Graphics/SVG/1.1/DTD/svg11.dtd">
<!-- Creator: CorelDRAW -->
<svg xmlns="http://www.w3.org/2000/svg" xml:space="preserve" width="127px" height="67px" version="1.1" shape-rendering="geometricPrecision" text-rendering="geometricPrecision" image-rendering="optimizeQuality" fill-rule="evenodd" clip-rule="evenodd"
viewBox="0 0 7.71 4.06"
 xmlns:xlink="http://www.w3.org/1999/xlink"
 xmlns:xodm="http://www.corel.com/coreldraw/odm/2003">
 <g id="Layer_x0020_1">
  <metadata id="CorelCorpID_0Corel-Layer"/>
  <g id="_1711338603648">
   <path fill="#0494D2" d="M1.45 1.5c-0.31,0.01 -0.49,-0.01 -0.73,0.13 -0.7,0.37 -0.9,1.11 -0.56,1.77 0.18,0.34 0.57,0.65 1.09,0.66 0.58,0.01 1.18,0 1.76,0 1.17,0 2.34,0 3.51,0 0.41,0 0.99,0.07 1.16,-0.58 0.08,-0.28 -0.01,-0.5 -0.15,-0.7 -0.13,-0.17 -0.35,-0.24 -0.63,-0.25 -0.07,-0.27 -0.07,-0.41 -0.21,-0.61 -0.14,-0.21 -0.23,-0.29 -0.42,-0.43 -0.17,-0.11 -0.37,-0.19 -0.6,-0.21 -0.37,-0.05 -0.5,0.05 -0.73,0.1l-0.03 -0.07c0,-0.02 -0.01,-0.05 -0.02,-0.07 -0.04,-0.15 -0.11,-0.28 -0.19,-0.41 -0.08,-0.15 -0.23,-0.32 -0.36,-0.42 -0.33,-0.26 -0.64,-0.42 -1.2,-0.41 -0.46,0.01 -0.9,0.23 -1.14,0.46 -0.28,0.28 -0.44,0.52 -0.55,1.04z"/>
   <path fill="white" d="M1.73 3.22l0.16 0.01 0 -0.43c0.18,-0.03 0.32,0.03 0.47,-0.06 0.25,-0.14 0.2,-0.59 -0.1,-0.65 -0.1,-0.02 -0.44,-0.02 -0.53,0l0 1.13z"/>
   <polygon fill="white" points="0.58,3.22 0.76,3.22 0.84,2.99 1.29,2.98 1.38,3.22 1.56,3.22 1.14,2.09 1.01,2.08 "/>
   <path fill="white" d="M6.09 2.05c0.12,0.07 0.15,-0.05 0.14,0.28 0,0.2 -0.02,0.24 0.07,0.39 -0.19,0.31 0.1,0.58 -0.21,0.67l0 0.15c0.19,0.02 0.29,-0.1 0.31,-0.27 0.04,-0.39 -0.09,-0.34 0.14,-0.49l-0.02 -0.13c-0.01,0 -0.01,-0.01 -0.02,-0.01 -0.07,-0.04 -0.09,-0.03 -0.1,-0.14 0,-0.1 0.01,-0.2 0,-0.3 -0.01,-0.2 -0.1,-0.31 -0.31,-0.29l0 0.14z"/>
   <path fill="white" d="M3.4 2.65l-0.01 0.13c0.08,0.06 0.13,0.03 0.14,0.15 0.02,0.23 -0.09,0.61 0.31,0.61l0 -0.14c-0.04,-0.02 -0.1,-0.05 -0.12,-0.09 -0.04,-0.07 -0.01,-0.29 -0.02,-0.42 -0.01,-0.07 -0.05,-0.12 -0.05,-0.17 0,-0.07 0.05,-0.01 0.05,-0.37 0,-0.34 0.02,-0.23 0.15,-0.3l0 -0.14c-0.39,-0.06 -0.31,0.39 -0.32,0.57 0,0.16 -0.04,0.11 -0.13,0.17z"/>
   <polygon fill="white" points="2.71,3.22 2.88,3.23 2.88,2.08 2.72,2.08 "/>
   <path fill="#3797C8" d="M4.65 2.41c-0.02,0.02 -0.03,-0.03 -0.03,0.15 0,0.05 0.01,0.1 0.01,0.15 -0.01,0.09 -0.02,0.2 0.01,0.29 0.1,0.02 0.35,0.04 0.41,-0.03 -0.02,-0.13 -0.15,-0.06 -0.28,-0.08l0 -0.12 0.22 -0.01c0.04,-0.08 0.03,-0.01 0.01,-0.09l-0.23 -0.02 -0.01 -0.15c0.28,0.02 0.28,0.03 0.29,-0.06 -0.03,-0.05 0.04,-0.05 -0.18,-0.05 -0.04,0 -0.08,0 -0.12,0l-0.1 0.02z"/>
   <path fill="white" d="M4.16 2.99c0.13,-0.01 0.04,-0.05 0.07,-0.17 0.02,-0.13 0.11,-0.08 0.17,0.05 0.05,0.12 0.02,0.12 0.15,0.12l-0.11 -0.23c0,0 0.18,-0.14 0.06,-0.29 -0.06,-0.08 -0.25,-0.06 -0.36,-0.05l0 0.53c0,0 0,0.01 0,0.01 0.01,0.01 0.01,0.01 0.01,0.02 0,0 0,0.01 0.01,0.01z"/>
   <path fill="#0494D2" d="M1.89 2.62c0.21,0.03 0.45,0.04 0.45,-0.18 0,-0.24 -0.22,-0.21 -0.44,-0.2l-0.01 0.38z"/>
   <path fill="white" d="M5.44 2.84c-0.09,0.18 -0.23,0 -0.33,0.05 0,0.09 0.07,0.11 0.19,0.11 0.11,0 0.18,-0.03 0.21,-0.1 0.1,-0.25 -0.22,-0.19 -0.29,-0.31 0.01,-0.07 0.04,-0.11 0.13,-0.09 0.1,0.01 0.08,0.08 0.15,0 -0.02,-0.08 -0.1,-0.09 -0.2,-0.08 -0.1,0 -0.16,0.04 -0.17,0.14 -0.03,0.24 0.24,0.12 0.31,0.28z"/>
   <path fill="white" d="M4.65 2.41l0.01 0.58 0.28 0c0.14,-0.01 0.06,0.02 0.09,-0.04 -0.05,-0.07 -0.14,-0.01 -0.29,-0.05l0 -0.15c0.16,-0.01 0.21,0.03 0.24,-0.04 -0.03,-0.06 -0.08,-0.03 -0.24,-0.03l0 -0.19c0.07,0 0.25,0.03 0.29,-0.03 -0.05,-0.07 -0.17,-0.02 -0.38,-0.05z"/>
   <path fill="#0494D2" d="M0.91 2.82l0.33 0c-0.05,-0.18 -0.11,-0.3 -0.16,-0.47 -0.05,0.05 -0.07,0.15 -0.09,0.22 -0.04,0.09 -0.06,0.15 -0.08,0.25z"/>
   <path fill="white" d="M5.55 2.46c0.03,0.05 -0.03,0.02 0.07,0.04 0.01,0 0.07,0 0.09,0 0,0.08 0,0.16 0,0.24l0 0.19c0.01,0.05 -0.03,-0.01 0.02,0.06l0.06 0c0.04,-0.1 0.01,-0.36 0.01,-0.49 0.2,-0.01 0.13,0.01 0.16,-0.04 -0.03,-0.05 0.03,-0.03 -0.08,-0.04 -0.02,-0.01 -0.09,0 -0.11,0 -0.31,0 -0.18,0 -0.22,0.04z"/>
   <path fill="#0494D2" d="M4.22 2.66c0.09,0.02 0.21,0.04 0.22,-0.07 0,-0.11 -0.12,-0.11 -0.22,-0.08l0 0.15z"/>
  </g>
 </g>
</svg>
