<?xml version="1.0" encoding="UTF-8"?>
<!DOCTYPE svg PUBLIC "-//W3C//DTD SVG 1.1//EN" "http://www.w3.org/Graphics/SVG/1.1/DTD/svg11.dtd">
<!-- Creator: CorelDRAW -->
<svg xmlns="http://www.w3.org/2000/svg" xml:space="preserve" width="127px" height="50px" version="1.1" shape-rendering="geometricPrecision" text-rendering="geometricPrecision" image-rendering="optimizeQuality" fill-rule="evenodd" clip-rule="evenodd"
viewBox="0 0 8.64 3.41"
 xmlns:xlink="http://www.w3.org/1999/xlink"
 xmlns:xodm="http://www.corel.com/coreldraw/odm/2003">
 <g id="Layer_x0020_1">
  <metadata id="CorelCorpID_0Corel-Layer"/>
  <g id="_1711266721648">
   <path fill="#3DB0F1" d="M0 1.11c0.01,-0.01 0.01,-0.02 0.01,-0.01 0,0 0,-0.01 0,-0.01 0.02,-0.08 0,0.06 0.01,-0.03l0 -0.2c0.03,0.01 0.38,0.22 0.4,0.23 0.03,0.06 -0.01,1.13 0.01,1.21 0.01,0.05 0,0.01 0.01,0.03l0 -1.24c0.07,-0.06 0.18,-0.1 0.26,-0.15l0.52 -0.3c0.08,-0.04 0.18,-0.11 0.26,-0.14 0.06,0.01 1.02,0.56 1.05,0.59 0.07,-0.02 0.15,-0.08 0.21,-0.11 0.07,-0.04 0.17,-0.1 0.22,-0.12 -0.03,-0.05 -0.1,-0.08 -0.17,-0.12 -0.15,-0.08 -1.28,-0.74 -1.31,-0.74l-1.29 0.74c-0.05,0.03 -0.15,0.08 -0.18,0.11l-0.01 0.26z"/>
   <path fill="#2F3F6A" d="M2.53 1.09l0 1.22c-0.18,0.1 -0.34,0.2 -0.52,0.31 -0.08,0.05 -0.46,0.25 -0.5,0.3l-0.02 0.38c-0.01,0.13 -0.02,0.1 0.02,0.09l0.73 -0.41c0.12,-0.07 0.24,-0.14 0.35,-0.2 0.11,-0.07 0.25,-0.16 0.37,-0.21l0 -1.71c-0.05,0.02 -0.15,0.08 -0.22,0.12 -0.06,0.03 -0.14,0.09 -0.21,0.11z"/>
   <path fill="#3479BD" d="M0 1.11l0 1.44c0.04,0.04 0.12,0.08 0.18,0.11l0.94 0.55c0.07,0.03 0.12,0.06 0.19,0.1 0.03,0.02 0.06,0.04 0.1,0.06 0.09,0.05 0.07,0.05 0.1,0.02 -0.04,0.01 -0.03,0.04 -0.02,-0.09l0.02 -0.38c-0.08,-0.01 -0.23,-0.11 -0.29,-0.15 -0.08,-0.05 -0.16,-0.09 -0.26,-0.15 -0.09,-0.04 -0.17,-0.09 -0.26,-0.15 -0.06,-0.03 -0.19,-0.12 -0.26,-0.14 -0.01,-0.02 0,0.02 -0.01,-0.03 -0.02,-0.08 0.02,-1.15 -0.01,-1.21 -0.02,-0.01 -0.37,-0.22 -0.4,-0.23l0 0.2c-0.01,0.09 0.01,-0.05 -0.01,0.03 0,0 0,0.01 0,0.01 0,-0.01 0,0 -0.01,0.01z"/>
   <path fill="#3DB0F1" d="M0.55 1.12c0.11,0.02 0.33,0.23 0.42,0.21 0.1,-0.02 0.28,-0.18 0.41,-0.21l-0.01 0.14c-0.08,0.06 -0.2,0.1 -0.26,0.16 0,0.02 0,0.02 0.01,0.03 0.09,0.03 0.31,0.21 0.4,0.2 0.13,-0.04 0.27,-0.18 0.4,-0.21l0 0.47c-0.08,0.07 -0.12,0.07 -0.22,0.12 -0.04,0.02 -0.16,0.11 -0.2,0.11 -0.06,-0.02 -0.07,-0.03 -0.14,-0.07 -0.02,-0.02 -0.04,-0.03 -0.07,-0.04 -0.06,-0.04 -0.02,-0.03 -0.07,-0.02 -0.07,0.04 -0.06,0.03 -0.12,0.05 0.02,0.05 -0.01,0.02 0.09,0.08l0.21 0.12c0.07,0.05 0.06,0.05 0.11,0.05 0.06,-0.04 0.13,-0.08 0.19,-0.11 0.09,-0.04 0.14,-0.09 0.22,-0.12l-0.01 0.49c0.02,-0.04 0.01,-0.08 0.01,-0.13l0.09 0.05 0 -0.47c0.1,-0.07 0.32,-0.2 0.42,-0.24l0 0.48 0.01 -0.23c0,-0.37 0.02,-0.21 -0.14,-0.34 -0.09,0.03 -0.2,0.13 -0.29,0.15l0 -0.47c0.11,-0.07 0.3,-0.19 0.42,-0.24l-0.01 0.48c0.03,-0.05 0.02,-0.45 0.01,-0.49 -0.07,-0.05 -0.34,-0.21 -0.42,-0.23l-0.11 0.05c-0.03,0.03 -0.1,0.07 -0.15,0.1 -0.04,0.02 -0.1,0.05 -0.14,0.08l0 0.12c-0.03,-0.01 -0.04,-0.01 -0.07,-0.03 -0.01,-0.01 -0.02,-0.01 -0.03,-0.02l-0.03 -0.13 0.41 -0.24c-0.02,-0.04 -0.33,-0.22 -0.4,-0.24l-0.41 0.23 -0.01 0.11 -0.12 -0.05c-0.07,0.04 -0.15,0.09 -0.2,0.12l-0.18 0.11c-0.01,0.01 0,0 -0.02,0.02z"/>
   <path fill="#3479BD" d="M0.98 2.48c-0.03,-0.02 -0.04,-0.01 -0.03,-0.11 0,-0.01 -0.01,-0.44 0.02,-0.38 0,0 0.01,-0.01 0.01,-0.01l0.05 -0.02c0.03,-0.01 0,0 0.03,-0.02l0.02 -0.01c0.06,-0.03 0.13,0.01 0.14,0.08 0.05,-0.01 0.01,-0.02 0.07,0.02 0.03,0.01 0.05,0.02 0.07,0.04 0.07,0.04 0.08,0.05 0.14,0.07 0,-0.11 -0.02,-0.41 0.02,-0.49 -0.09,0.01 -0.31,-0.17 -0.4,-0.2 -0.01,-0.01 -0.01,-0.01 -0.01,-0.03 -0.03,0.02 -0.02,0.01 -0.02,0.08l0 0.25c-0.03,0.01 -0.04,0.02 -0.07,0.03 -0.02,0.02 -0.03,0.03 -0.06,0.04 0,-0.12 -0.02,-0.39 0.01,-0.49 -0.09,0.02 -0.31,-0.19 -0.42,-0.21l0 0.48c0.06,0.04 0.09,0.03 0.13,0.08 -0.15,0.14 -0.13,-0.09 -0.13,0.56 0.05,0.04 0.39,0.24 0.43,0.24z"/>
   <path fill="#356FA9" d="M0.98 2.48l0.11 -0.07 0 0.15 0.32 0.19c0.05,0.02 0.09,0.07 0.12,0.02 -0.07,0.03 -0.01,0.01 -0.03,-0.01l0.01 -0.45c-0.05,0 -0.04,0 -0.11,-0.05l-0.21 -0.12c-0.1,-0.06 -0.07,-0.03 -0.09,-0.08 0.06,-0.02 0.05,-0.01 0.12,-0.05 -0.01,-0.07 -0.08,-0.11 -0.14,-0.08l-0.02 0.01c-0.03,0.02 0,0.01 -0.03,0.02l-0.05 0.02c0,0 -0.01,0.01 -0.01,0.01 -0.03,-0.06 -0.02,0.37 -0.02,0.38 -0.01,0.1 0,0.09 0.03,0.11z"/>
   <path fill="#2F3F6A" d="M5.15 2.09c-0.22,0.08 -0.34,0.05 -0.34,-0.21 -0.01,-0.25 0.1,-0.32 0.34,-0.27l0 0.48zm0 0.1l0 0.32 0.1 0c0.02,-0.12 0,-0.53 0,-0.68 0,-0.06 0.03,-0.28 -0.01,-0.31 -0.03,-0.02 -0.29,-0.01 -0.34,0 -0.2,0.04 -0.23,0.26 -0.19,0.48 0.04,0.32 0.3,0.21 0.44,0.19z"/>
   <path fill="#2F3F6A" d="M3.28 2.1l-0.01 0.09c0.13,0.06 0.44,0.04 0.53,-0.04 0.07,-0.07 0.16,-0.34 -0.05,-0.44 -0.14,-0.06 -0.4,-0.04 -0.38,-0.24 0.03,-0.22 0.36,-0.09 0.48,-0.12l0 -0.08c-0.08,-0.03 -0.4,-0.06 -0.52,0.04 -0.07,0.06 -0.15,0.33 0.08,0.42 0.14,0.05 0.4,0.04 0.35,0.25 -0.04,0.21 -0.31,0.13 -0.48,0.12z"/>
   <path fill="#2F3F6A" d="M1.52 1.65c-0.04,0.08 -0.02,0.38 -0.02,0.49 0.04,0 0.16,-0.09 0.2,-0.11 0.1,-0.05 0.14,-0.05 0.22,-0.12l0 -0.47c-0.13,0.03 -0.27,0.17 -0.4,0.21z"/>
   <path fill="#2F3F6A" d="M2.3 1.69l0.12 -0.08 0.01 -0.48c-0.12,0.05 -0.31,0.17 -0.42,0.24l0 0.47c0.09,-0.02 0.2,-0.12 0.29,-0.15z"/>
   <path fill="#2F3F6A" d="M2.01 2.49c0.08,-0.02 0.35,-0.19 0.42,-0.23l0 -0.48c-0.1,0.04 -0.32,0.17 -0.42,0.24l0 0.47z"/>
   <path fill="#2F3F6A" d="M6.26 1.82c-0.03,-0.28 0.36,-0.32 0.34,0l-0.34 0zm0.43 0.38l0 -0.08c-0.09,-0.01 -0.22,0.02 -0.31,0 -0.08,-0.02 -0.13,-0.1 -0.12,-0.21l0.45 0c0,-0.19 -0.01,-0.34 -0.17,-0.39 -0.06,-0.02 -0.18,-0.02 -0.25,0.01 -0.2,0.11 -0.17,0.52 -0.06,0.63 0.09,0.09 0.33,0.08 0.46,0.04z"/>
   <path fill="#2F3F6A" d="M4.12 1.82c-0.02,-0.31 0.38,-0.3 0.34,0l-0.34 0zm0.43 0.37l-0.01 -0.07c-0.21,0 -0.43,0.07 -0.42,-0.21l0.45 0c0.01,-0.18 -0.01,-0.35 -0.17,-0.39 -0.47,-0.12 -0.45,0.5 -0.31,0.64 0.09,0.1 0.4,0.06 0.46,0.03z"/>
   <path fill="#2F3F6A" d="M1.51 2.31l-0.01 0.45c0.02,0.02 -0.04,0.04 0.03,0.01 0.06,-0.01 0.3,-0.16 0.38,-0.2l0.01 -0.49c-0.08,0.03 -0.13,0.08 -0.22,0.12 -0.06,0.03 -0.13,0.07 -0.19,0.11z"/>
   <path fill="#2F3F6A" d="M8.19 1.82c-0.01,-0.13 0.05,-0.22 0.18,-0.22 0.12,-0.01 0.18,0.09 0.16,0.22l-0.34 0zm0.43 0.37l0 -0.07c-0.21,0.01 -0.45,0.06 -0.43,-0.21 0.12,-0.01 0.35,0.02 0.45,-0.01 0.06,-0.5 -0.45,-0.49 -0.54,-0.2 -0.05,0.15 -0.02,0.38 0.06,0.46 0.08,0.08 0.39,0.08 0.46,0.03z"/>
   <path fill="#2F3F6A" d="M5.92 2.21l0.06 0 0.01 -0.69 -0.1 0 -0.01 0.56c-0.48,0.21 -0.27,-0.28 -0.33,-0.56l-0.1 0c-0.02,0.09 -0.01,0.51 0.02,0.59 0.05,0.13 0.23,0.13 0.35,0.08 0.12,-0.05 0,0.01 0.1,0.02z"/>
   <path fill="#2F3F6A" d="M7.44 1.62l0.37 -0.01c-0.01,0.06 -0.15,0.22 -0.19,0.28 -0.04,0.04 -0.07,0.09 -0.11,0.13 -0.04,0.06 -0.08,0.1 -0.06,0.19l0.5 0 0.01 -0.09 -0.37 -0.01c0.01,-0.04 0.07,-0.1 0.1,-0.14 0.04,-0.05 0.06,-0.09 0.1,-0.13 0.04,-0.06 0.07,-0.1 0.1,-0.14 0.06,-0.07 0.07,-0.06 0.07,-0.17l-0.51 -0.01 -0.01 0.1z"/>
   <path fill="#2F3F6A" d="M0.97 1.33c-0.03,0.1 -0.01,0.37 -0.01,0.49 0.03,-0.01 0.04,-0.02 0.06,-0.04 0.03,-0.01 0.04,-0.02 0.07,-0.03l0 -0.25c0,-0.07 -0.01,-0.06 0.02,-0.08 0.06,-0.06 0.18,-0.1 0.26,-0.16l0.01 -0.14c-0.13,0.03 -0.31,0.19 -0.41,0.21z"/>
   <polygon fill="#2F3F6A" points="6.88,2.21 6.98,2.21 6.98,1.22 6.88,1.22 "/>
   <path fill="#2F3F6A" d="M7.2 2.21l0.09 0 0 -0.69 -0.11 0c0,0.1 -0.01,0.63 0.02,0.69z"/>
   <path fill="#2F3F6A" d="M1.9 0.94c0,-0.02 0.01,-0.04 0,-0.06 0,-0.04 0.01,0.01 0,-0.03 0,-0.02 0,-0.02 -0.01,-0.03l-0.41 0.24 0.03 0.13c0.01,0.01 0.02,0.01 0.03,0.02 0.03,0.02 0.04,0.02 0.07,0.03l0 -0.12c0.04,-0.03 0.1,-0.06 0.14,-0.08 0.05,-0.03 0.12,-0.07 0.15,-0.1z"/>
   <polygon fill="#2F3F6A" points="7.18,1.37 7.29,1.37 7.29,1.25 7.19,1.25 "/>
  </g>
 </g>
</svg>
