<?xml version="1.0" encoding="UTF-8"?>
<!DOCTYPE svg PUBLIC "-//W3C//DTD SVG 1.1//EN" "http://www.w3.org/Graphics/SVG/1.1/DTD/svg11.dtd">
<!-- Creator: CorelDRAW -->
<svg xmlns="http://www.w3.org/2000/svg" xml:space="preserve" width="127px" height="67px" version="1.1" shape-rendering="geometricPrecision" text-rendering="geometricPrecision" image-rendering="optimizeQuality" fill-rule="evenodd" clip-rule="evenodd"
viewBox="0 0 26.28 13.75"
 xmlns:xlink="http://www.w3.org/1999/xlink"
 xmlns:xodm="http://www.corel.com/coreldraw/odm/2003">
 <g id="Layer_x0020_1">
  <metadata id="CorelCorpID_0Corel-Layer"/>
  <g id="_1711245251264">
   <path fill="#DC7634" d="M5.86 12.68c-1.43,0 -2.97,-0.12 -4.11,-0.75 -0.1,-0.06 -0.16,-0.1 -0.26,-0.17 -0.11,-0.06 -0.15,-0.11 -0.23,-0.2 -0.23,-0.22 -0.2,-0.26 -0.19,-0.67 0,-0.3 0,-0.6 0,-0.9l0.44 0.22c2.09,0.92 5.53,1 7.67,0.2 0.18,-0.07 0.32,-0.12 0.47,-0.19l0.47 -0.23c0,0.29 0,0.57 0,0.86 0,0.52 0.01,0.69 -0.67,1.06 -0.97,0.54 -2.47,0.77 -3.59,0.77zm-0.92 -12.68l1.35 0c1.04,0 2.6,0.33 3.49,0.78 1.72,0.86 1.28,1.62 1.38,2.34l-0.01 1.14c0,0.16 0.03,0.23 0.03,0.33 0,0.11 -0.03,0.18 -0.03,0.34l0 0.66c0,0.16 0.03,0.23 0.03,0.34 0,0.1 -0.03,0.17 -0.03,0.33l0 0.66c0,0.17 0.03,0.23 0.03,0.34 0,0.1 -0.03,0.17 -0.03,0.33l0 0.67c0,0.16 0.03,0.22 0.03,0.33 0,0.1 -0.03,0.17 -0.03,0.33l0 0.67c0,0.16 0.03,0.23 0.03,0.33 0,0.11 -0.03,0.17 -0.03,0.33l0 0.77c0,0.27 0.06,0.48 -0.14,0.85 -0.24,0.44 -0.68,0.8 -1.12,1.01 -1.23,0.61 -2.06,0.68 -3.37,0.83 -0.17,0.02 -0.35,-0.01 -0.52,0.01 -0.56,0.06 -0.54,0.01 -0.97,0 -0.47,-0.02 -0.97,-0.05 -1.41,-0.13 -0.61,-0.1 -1.13,-0.21 -1.63,-0.4 -1.01,-0.38 -1.99,-0.93 -1.99,-2.1l0 -8.49c0,-0.9 0.52,-1.27 1.15,-1.69 0.16,-0.11 0.43,-0.22 0.62,-0.3 0.48,-0.19 0.92,-0.32 1.48,-0.42 0.7,-0.14 1.18,-0.18 1.69,-0.19zm-3.87 7.02c0.11,0.03 0.28,0.14 0.45,0.22 2.17,0.97 5.4,0.97 7.63,0.21 0.09,-0.03 0.13,-0.06 0.23,-0.1 0.28,-0.1 0.59,-0.29 0.74,-0.33 0,0.3 0,0.6 0,0.9 0,0.4 0.06,0.57 -0.14,0.8l-0.11 0.12c-0.39,0.35 -0.92,0.53 -1.4,0.69 -0.59,0.2 -1.39,0.27 -1.99,0.35l-0.89 0.04c-0.19,0 -0.23,-0.03 -0.4,-0.03 -0.14,-0.01 -0.31,0.01 -0.46,-0.01 -0.74,-0.08 -1.63,-0.18 -2.33,-0.46 -0.22,-0.09 -0.45,-0.16 -0.66,-0.28l-0.28 -0.18c-0.47,-0.38 -0.39,-0.4 -0.39,-1 0,-0.31 0,-0.62 0,-0.94zm0 -2.99c0.83,0.56 2.66,0.96 4.09,0.96 1.56,0 2.1,0 3.63,-0.4 0.17,-0.04 0.32,-0.1 0.47,-0.16 0.35,-0.12 0.56,-0.24 0.86,-0.4l0 1.3c0,0.21 -0.01,0.24 -0.1,0.36 -0.17,0.24 -0.21,0.23 -0.46,0.41 -0.19,0.13 -0.52,0.26 -0.75,0.34 -2.02,0.68 -4.58,0.66 -6.58,-0.05 -0.38,-0.14 -0.84,-0.39 -1.07,-0.69 -0.17,-0.21 -0.09,-1.34 -0.09,-1.67zm4.56 -0.07c-1.49,0 -2.59,-0.17 -3.8,-0.73 -0.94,-0.42 -1.03,-0.96 -0.08,-1.44 1.93,-0.98 4.55,-0.93 6.65,-0.41 0.57,0.15 0.98,0.35 1.43,0.68 0,0 0.01,0.01 0.02,0.01 0,0 0.01,0.01 0.02,0.01l0.14 0.16c0.2,0.29 0.07,0.49 -0.19,0.69 -1.06,0.8 -2.87,1.03 -4.19,1.03z"/>
   <path fill="#DC7634" d="M17.41 6.82c0,0.53 0,0.9 0.23,1.37 0.1,0.2 0.22,0.43 0.37,0.6 0.28,0.3 0.37,0.43 0.76,0.67l0.61 0.3c0.07,0.02 0.16,0.06 0.16,-0.07 0,-1.85 0.09,-0.85 -0.59,-1.68 -0.46,-0.56 -0.34,-1.4 0.01,-1.97l0.41 -0.46c1.23,-0.9 2.28,0.11 2.48,1.1 0.11,0.51 -0.06,1.13 -0.31,1.44 -0.04,0.05 -0.05,0.06 -0.09,0.11 -0.25,0.32 -0.29,0.25 -0.58,0.39l0 -0.73c-0.35,0 -0.77,-0.06 -1.03,0l0 2.7 1.1 0c0,-1.1 -0.12,-0.43 0.83,-1l0.5 -0.4c0.65,-0.75 0.83,-1.19 0.83,-2.3 0,-2.72 -3.21,-3.61 -4.83,-2.01 -0.41,0.41 -0.86,1.15 -0.86,1.94z"/>
   <path fill="#DC7634" d="M13.48 5.09c0,0.6 -0.03,0.6 0.25,1.16 0.03,0.05 0.04,0.1 0.07,0.15l0.34 0.43c0.05,0.05 0.07,0.07 0.12,0.12l0.83 0.73c0.01,0 0.02,0.01 0.02,0.01l0.05 0.05c0.13,0.12 0.34,0.24 0.51,0.5 0.4,0.6 -1.24,0.45 -1.47,0.44l-0.68 -0.02c0.07,0.16 0,0.87 0,1.13l1.89 0c0.34,0 0.8,-0.19 1.06,-0.41 0.3,-0.25 0.48,-0.62 0.48,-1.02 0,-0.57 -0.43,-1.19 -0.83,-1.48l-0.25 -0.21c-0.31,-0.29 -0.5,-0.36 -0.92,-0.74 -0.02,-0.02 -0.03,-0.03 -0.05,-0.05 -0.17,-0.15 -0.33,-0.26 -0.17,-0.44 0.03,-0.05 0.01,-0.02 0.05,-0.05 0.4,-0.31 1.61,-0.09 1.87,-0.11 0.15,-0.01 0.02,-0.15 0.07,-0.55 0.08,-0.7 0.31,-0.54 -1.91,-0.54 -0.28,0 -0.67,0.13 -0.86,0.24 -0.16,0.11 -0.18,0.11 -0.29,0.27 -0.06,0.09 -0.18,0.26 -0.18,0.39z"/>
   <path fill="#DC7634" d="M23.6 8.52c0,0.62 0.47,1.27 1.04,1.27l1.63 0c0,-1.44 0.11,-1.24 -0.44,-1.23 -0.2,0 -0.53,-0.02 -0.7,-0.13 -0.13,-0.08 -0.29,-0.32 -0.29,-0.54l0 -3.7 -1.24 0 0 4.33z"/>
  </g>
 </g>
</svg>
