<?xml version="1.0" encoding="UTF-8"?>
<!DOCTYPE svg PUBLIC "-//W3C//DTD SVG 1.1//EN" "http://www.w3.org/Graphics/SVG/1.1/DTD/svg11.dtd">
<!-- Creator: CorelDRAW -->
<svg xmlns="http://www.w3.org/2000/svg" xml:space="preserve" width="127px" height="77px" version="1.1" shape-rendering="geometricPrecision" text-rendering="geometricPrecision" image-rendering="optimizeQuality" fill-rule="evenodd" clip-rule="evenodd"
viewBox="0 0 14.38 8.65"
 xmlns:xlink="http://www.w3.org/1999/xlink"
 xmlns:xodm="http://www.corel.com/coreldraw/odm/2003">
 <g id="Layer_x0020_1">
  <metadata id="CorelCorpID_0Corel-Layer"/>
  <g id="_1711443536672">
   <path fill="#38BDF8" d="M7.58 0l-0.87 0c-0.28,0.11 -0.77,0.14 -1.16,0.3 -0.61,0.24 -1.25,0.85 -1.54,1.43 -0.18,0.36 -0.32,0.68 -0.41,1.09 0.37,-0.34 0.58,-0.68 1.17,-0.94 0.54,-0.23 1.26,-0.18 1.74,0.08 0.42,0.23 1.14,1.02 1.71,1.51 1.71,1.49 5.54,1.22 6.16,-1.94 -0.2,0.13 -0.63,0.86 -1.58,1.03 -0.4,0.08 -0.85,0.01 -1.18,-0.13 -0.92,-0.39 -1.47,-1.67 -2.97,-2.2 -0.38,-0.14 -0.78,-0.14 -1.07,-0.23z"/>
   <path fill="#38BDF8" d="M0 7.11l0.28 -0.26c0.24,-0.21 0.39,-0.46 0.94,-0.66 1.9,-0.71 2.64,1.35 4.09,2.06 0.99,0.48 2.49,0.55 3.54,0.09 0.59,-0.27 0.91,-0.56 1.22,-0.96 0.3,-0.4 0.58,-0.91 0.69,-1.51l-0.15 0.14c-0.72,0.8 -1.81,1.24 -2.84,0.63 -0.44,-0.27 -0.78,-0.71 -1.1,-1.02 -0.19,-0.18 -0.33,-0.28 -0.57,-0.48 -1.12,-0.92 -2.91,-1.05 -4.24,-0.48 -0.85,0.36 -1.67,1.34 -1.86,2.45z"/>
  </g>
 </g>
</svg>
