<?xml version="1.0" encoding="UTF-8"?>
<!DOCTYPE svg PUBLIC "-//W3C//DTD SVG 1.1//EN" "http://www.w3.org/Graphics/SVG/1.1/DTD/svg11.dtd">
<!-- Creator: CorelDRAW -->
<svg xmlns="http://www.w3.org/2000/svg" xml:space="preserve" width="127px" height="127px" version="1.1" shape-rendering="geometricPrecision" text-rendering="geometricPrecision" image-rendering="optimizeQuality" fill-rule="evenodd" clip-rule="evenodd"
viewBox="0 0 13.01 13.01"
 xmlns:xlink="http://www.w3.org/1999/xlink"
 xmlns:xodm="http://www.corel.com/coreldraw/odm/2003">
 <g id="Layer_x0020_1">
  <metadata id="CorelCorpID_0Corel-Layer"/>
  <g id="_1711443612528">
   <path fill="#0077CA" d="M0 13.01l13.01 0 0 -13.01c-4.34,0 -8.67,0 -13.01,0l0 13.01z"/>
   <path fill="white" d="M8.71 10.14l-0.96 0.55c0.64,1.77 4.54,1.77 4.18,-0.71 -0.28,-1.85 -3.43,-1.71 -2.51,-2.82 0.19,-0.23 0.87,-0.36 1.19,0.31 0.32,-0.1 0.68,-0.42 0.96,-0.56 -0.27,-0.76 -1.48,-1.3 -2.5,-0.85 -0.86,0.38 -1.32,1.44 -0.69,2.44 0.49,0.78 1.94,0.98 2.26,1.44 0.39,0.59 -0.27,0.96 -0.81,0.92 -0.61,-0.03 -0.86,-0.4 -1.12,-0.72z"/>
   <path fill="white" d="M2.85 7.04l1.69 0.01 0 4.79c0.32,0.09 0.85,0.04 1.21,0.04l0 -4.8 1.69 -0.03 0 -1.02c-0.33,-0.09 -4.22,-0.09 -4.59,-0.01l0 1.02z"/>
  </g>
 </g>
</svg>
